%TF.GenerationSoftware,KiCad,Pcbnew,9.0.4-9.0.4-0~ubuntu24.04.1*%
%TF.CreationDate,2025-09-28T10:50:24-04:00*%
%TF.ProjectId,DualHbridgeDaughterboardDesign,4475616c-4862-4726-9964-676544617567,rev?*%
%TF.SameCoordinates,Original*%
%TF.FileFunction,Copper,L2,Bot*%
%TF.FilePolarity,Positive*%
%FSLAX46Y46*%
G04 Gerber Fmt 4.6, Leading zero omitted, Abs format (unit mm)*
G04 Created by KiCad (PCBNEW 9.0.4-9.0.4-0~ubuntu24.04.1) date 2025-09-28 10:50:24*
%MOMM*%
%LPD*%
G01*
G04 APERTURE LIST*
%TA.AperFunction,ComponentPad*%
%ADD10R,3.960000X1.980000*%
%TD*%
%TA.AperFunction,ComponentPad*%
%ADD11O,3.960000X1.980000*%
%TD*%
%TA.AperFunction,ComponentPad*%
%ADD12R,1.980000X3.960000*%
%TD*%
%TA.AperFunction,ComponentPad*%
%ADD13O,1.980000X3.960000*%
%TD*%
%TA.AperFunction,ComponentPad*%
%ADD14O,1.727200X1.727200*%
%TD*%
%TA.AperFunction,ComponentPad*%
%ADD15R,1.727200X1.727200*%
%TD*%
%TA.AperFunction,ViaPad*%
%ADD16C,0.600000*%
%TD*%
%TA.AperFunction,Conductor*%
%ADD17C,0.381000*%
%TD*%
G04 APERTURE END LIST*
D10*
%TO.P,J1,1,Pin_1*%
%TO.N,/POWB*%
X81200000Y-101500000D03*
D11*
%TO.P,J1,2,Pin_2*%
%TO.N,/POWA*%
X81200000Y-96500000D03*
%TD*%
D10*
%TO.P,J2,1,Pin_1*%
%TO.N,/POWD*%
X165800000Y-101400000D03*
D11*
%TO.P,J2,2,Pin_2*%
%TO.N,/POWC*%
X165800000Y-96400000D03*
%TD*%
D12*
%TO.P,J4,1,Pin_1*%
%TO.N,Vdrive*%
X107200000Y-79000000D03*
D13*
%TO.P,J4,2,Pin_2*%
%TO.N,GND*%
X112200000Y-79000000D03*
%TD*%
D14*
%TO.P,J3,0,GP0*%
%TO.N,unconnected-(J3-GP0-Pad0)*%
X84680000Y-122460000D03*
%TO.P,J3,1,GP1*%
%TO.N,unconnected-(J3-GP1-Pad1)*%
X162150000Y-122460000D03*
%TO.P,J3,2,GP2*%
%TO.N,ENB*%
X157070000Y-74200000D03*
%TO.P,J3,3,GP3*%
%TO.N,INB0*%
X154530000Y-74200000D03*
%TO.P,J3,4,GP4*%
%TO.N,INB1*%
X151990000Y-74200000D03*
%TO.P,J3,5,GP5*%
%TO.N,ENA*%
X149450000Y-74200000D03*
%TO.P,J3,6,GP6*%
%TO.N,INA0*%
X146910000Y-74200000D03*
%TO.P,J3,7,GP7*%
%TO.N,INA1*%
X144370000Y-74200000D03*
%TO.P,J3,8,GP8*%
%TO.N,unconnected-(J3-GP8-Pad8)*%
X140306000Y-74200000D03*
%TO.P,J3,9,GP9*%
%TO.N,unconnected-(J3-GP9-Pad9)*%
X137766000Y-74200000D03*
%TO.P,J3,10,GP10*%
%TO.N,unconnected-(J3-GP10-Pad10)*%
X135226000Y-74200000D03*
%TO.P,J3,11,GP11*%
%TO.N,unconnected-(J3-GP11-Pad11)*%
X132686000Y-74200000D03*
%TO.P,J3,12,GP12*%
%TO.N,unconnected-(J3-GP12-Pad12)*%
X130146000Y-74200000D03*
%TO.P,J3,13,GP13*%
%TO.N,unconnected-(J3-GP13-Pad13)*%
X127606000Y-74200000D03*
%TO.P,J3,14,GP14*%
%TO.N,unconnected-(J3-GP14-Pad14)*%
X149450000Y-122460000D03*
%TO.P,J3,15,GP15*%
%TO.N,unconnected-(J3-GP15-Pad15)*%
X151990000Y-122460000D03*
%TO.P,J3,16,GP16*%
%TO.N,unconnected-(J3-GP16-Pad16)*%
X154530000Y-122460000D03*
%TO.P,J3,17,GP17*%
%TO.N,unconnected-(J3-GP17-Pad17)*%
X157070000Y-122460000D03*
%TO.P,J3,18,GP18*%
%TO.N,unconnected-(J3-GP18-Pad18)*%
X159610000Y-122460000D03*
%TO.P,J3,21,GP21*%
%TO.N,unconnected-(J3-GP21-Pad21)*%
X92300000Y-74200000D03*
%TO.P,J3,22,VIN*%
%TO.N,unconnected-(J3-VIN-Pad22)*%
X144370000Y-122460000D03*
D15*
%TO.P,J3,23,GND*%
%TO.N,GND*%
X141830000Y-122460000D03*
%TO.P,J3,24,GND*%
X139290000Y-122460000D03*
D14*
%TO.P,J3,25,+5V*%
%TO.N,unconnected-(J3-+5V-Pad25)*%
X136750000Y-122460000D03*
%TO.P,J3,26,+3V3*%
%TO.N,+3V3*%
X134210000Y-122460000D03*
%TO.P,J3,27,~{RST}*%
%TO.N,unconnected-(J3-~{RST}-Pad27)*%
X131670000Y-122460000D03*
%TO.P,J3,28,IOREF*%
%TO.N,unconnected-(J3-IOREF-Pad28)*%
X129130000Y-122460000D03*
%TO.P,J3,29,NC*%
%TO.N,unconnected-(J3-NC-Pad29)*%
X126590000Y-122460000D03*
D15*
%TO.P,J3,30,GND*%
%TO.N,GND*%
X125066000Y-74200000D03*
D14*
%TO.P,J3,32,+3V3*%
%TO.N,+3V3*%
X122526000Y-74200000D03*
%TO.P,J3,35,GP35*%
%TO.N,unconnected-(J3-GP35-Pad35)*%
X94840000Y-122460000D03*
%TO.P,J3,36,GP36*%
%TO.N,unconnected-(J3-GP36-Pad36)*%
X92300000Y-122460000D03*
%TO.P,J3,37,GP37*%
%TO.N,unconnected-(J3-GP37-Pad37)*%
X89760000Y-122460000D03*
%TO.P,J3,38,GP38*%
%TO.N,unconnected-(J3-GP38-Pad38)*%
X87220000Y-122460000D03*
%TO.P,J3,39,GP39*%
%TO.N,unconnected-(J3-GP39-Pad39)*%
X87220000Y-74200000D03*
%TO.P,J3,40,TX_GP40*%
%TO.N,unconnected-(J3-TX_GP40-Pad40)*%
X162150000Y-74200000D03*
%TO.P,J3,41,RX_GP41*%
%TO.N,unconnected-(J3-RX_GP41-Pad41)*%
X159610000Y-74200000D03*
%TO.P,J3,42,GP42*%
%TO.N,unconnected-(J3-GP42-Pad42)*%
X84680000Y-74200000D03*
%TO.P,J3,45,GP45*%
%TO.N,unconnected-(J3-GP45-Pad45)*%
X89760000Y-74200000D03*
%TO.P,J3,46,GP46*%
%TO.N,unconnected-(J3-GP46-Pad46)*%
X94840000Y-74200000D03*
%TO.P,J3,47,SDA_GP47*%
%TO.N,unconnected-(J3-SDA_GP47-Pad47)*%
X119986000Y-74200000D03*
%TO.P,J3,48,SCL_GP48*%
%TO.N,unconnected-(J3-SCL_GP48-Pad48)*%
X117446000Y-74200000D03*
%TD*%
D16*
%TO.N,GND*%
X133000000Y-99500000D03*
X130000000Y-77600000D03*
X111400000Y-81600000D03*
X77200000Y-82400000D03*
X117500000Y-80000000D03*
X120904000Y-120650000D03*
X113800000Y-81600000D03*
X155600000Y-117800000D03*
X172500000Y-95000000D03*
X108600000Y-72600000D03*
X170000000Y-90000000D03*
X126500000Y-91500000D03*
X97500000Y-72500000D03*
X172500000Y-100000000D03*
X77400000Y-97600000D03*
X172400000Y-108600000D03*
X142500000Y-77500000D03*
X77000000Y-92600000D03*
X103200000Y-72600000D03*
X121000000Y-105500000D03*
X112500000Y-99500000D03*
X172500000Y-117500000D03*
X172500000Y-90000000D03*
X110000000Y-123500000D03*
X116000000Y-105500000D03*
X75000000Y-102500000D03*
X77400000Y-100000000D03*
X100000000Y-121000000D03*
X95000000Y-120000000D03*
X164200000Y-79400000D03*
X172500000Y-97500000D03*
X170000000Y-100000000D03*
X123698000Y-122428000D03*
X129500000Y-99500000D03*
X128500000Y-91500000D03*
X125000000Y-82400000D03*
X102500000Y-121000000D03*
X132500000Y-77500000D03*
X170000000Y-108600000D03*
X121000000Y-122400000D03*
X130000000Y-82600000D03*
X97500000Y-122500000D03*
X170000000Y-115000000D03*
X111200000Y-72600000D03*
X92500000Y-120000000D03*
X75000000Y-95000000D03*
X172500000Y-115000000D03*
X117500000Y-82500000D03*
X77200000Y-80800000D03*
X120000000Y-80000000D03*
X97500000Y-121000000D03*
X132500000Y-82500000D03*
X170000000Y-97500000D03*
X135000000Y-77600000D03*
X83000000Y-76400000D03*
X120000000Y-82500000D03*
X123698000Y-120650000D03*
X107000000Y-121000000D03*
X115000000Y-99500000D03*
X112500000Y-97000000D03*
X172500000Y-92500000D03*
X165000000Y-72500000D03*
X170000000Y-92500000D03*
X120000000Y-77500000D03*
X82500000Y-122500000D03*
X102500000Y-122500000D03*
X113800000Y-88800000D03*
X114808000Y-122500000D03*
X146400000Y-121000000D03*
X75000000Y-115000000D03*
X77000000Y-85000000D03*
X115000000Y-97000000D03*
X121000000Y-103500000D03*
X75000000Y-80200000D03*
X172500000Y-82500000D03*
X105000000Y-121000000D03*
X170000000Y-80800000D03*
X82500000Y-72500000D03*
X124500000Y-91500000D03*
X172400000Y-106200000D03*
X77400000Y-95000000D03*
X125000000Y-80000000D03*
X82500000Y-117500000D03*
X113800000Y-86200000D03*
X127400000Y-85000000D03*
X75000000Y-85000000D03*
X118500000Y-103500000D03*
X117500000Y-87500000D03*
X164200000Y-117500000D03*
X147200000Y-123400000D03*
X132600000Y-80200000D03*
X117500000Y-77500000D03*
X93600000Y-76000000D03*
X172500000Y-79200000D03*
X118500000Y-105500000D03*
X127500000Y-77500000D03*
X75000000Y-112500000D03*
X164200000Y-123200000D03*
X75000000Y-92500000D03*
X77000000Y-115000000D03*
X160600000Y-76000000D03*
X164200000Y-120000000D03*
X128000000Y-103000000D03*
X131500000Y-99500000D03*
X117500000Y-85000000D03*
X83000000Y-79200000D03*
X112268000Y-120904000D03*
X114808000Y-120904000D03*
X100000000Y-122500000D03*
X170000000Y-102500000D03*
X125000000Y-85000000D03*
X170000000Y-95000000D03*
X127500000Y-82500000D03*
X132500000Y-85000000D03*
X140000000Y-77600000D03*
X91600000Y-117200000D03*
X130000000Y-85000000D03*
X111400000Y-83600000D03*
X75000000Y-82500000D03*
X170000000Y-82500000D03*
X120000000Y-85000000D03*
X113800000Y-72600000D03*
X111400000Y-88800000D03*
X112268000Y-122428000D03*
X127400000Y-80000000D03*
X153000000Y-117600000D03*
X106200000Y-72600000D03*
X113800000Y-83600000D03*
X95000000Y-117500000D03*
X137500000Y-77500000D03*
X133500000Y-97000000D03*
X105000000Y-122500000D03*
X172500000Y-102500000D03*
X170000000Y-106200000D03*
X130000000Y-80000000D03*
X77000000Y-112600000D03*
X75000000Y-78800000D03*
X75000000Y-100000000D03*
X111400000Y-86200000D03*
X75000000Y-97500000D03*
X107000000Y-122500000D03*
X77250000Y-103500000D03*
X163800000Y-76000000D03*
X113800000Y-74600000D03*
%TO.N,INA0*%
X120400000Y-91400000D03*
%TO.N,INB1*%
X144400000Y-97000000D03*
X145000000Y-90600000D03*
X134000000Y-103000000D03*
%TO.N,ENB*%
X128000000Y-95200000D03*
%TO.N,INA1*%
X117800000Y-97600000D03*
X116600000Y-103000000D03*
%TO.N,ENA*%
X121600000Y-90000000D03*
%TO.N,+3V3*%
X123000000Y-103800000D03*
%TO.N,INB0*%
X134000000Y-92200000D03*
%TO.N,Net-(Q1-G)*%
X105500000Y-93250000D03*
X101000000Y-96250000D03*
%TO.N,Net-(Q2-G)*%
X102250000Y-105500000D03*
X105750000Y-103500000D03*
%TO.N,Net-(Q3-G)*%
X93000000Y-78600000D03*
X105000000Y-90800000D03*
%TO.N,Net-(Q4-G)*%
X105750000Y-101000000D03*
X87250000Y-118750000D03*
%TO.N,Net-(Q5-G)*%
X144938258Y-89438258D03*
X140250000Y-91250000D03*
%TO.N,Net-(Q7-G)*%
X143000000Y-101500000D03*
X139250000Y-101750000D03*
%TO.N,Net-(Q8-G)*%
X137250000Y-107000000D03*
X154250000Y-119250000D03*
%TO.N,Net-(U1-IN_B)*%
X117800000Y-96200000D03*
X116600000Y-91800000D03*
%TO.N,Net-(U5-IN_B)*%
X132000000Y-96800000D03*
X127000000Y-97800000D03*
%TO.N,Net-(U6-IN_B)*%
X129000000Y-105600000D03*
X125000000Y-103000000D03*
%TD*%
D17*
%TO.N,INA0*%
X144000000Y-87800000D02*
X121800000Y-87800000D01*
X121800000Y-87800000D02*
X120400000Y-89200000D01*
X146910000Y-84890000D02*
X144000000Y-87800000D01*
X120400000Y-89200000D02*
X120400000Y-89600000D01*
X120400000Y-89600000D02*
X120400000Y-91400000D01*
X146910000Y-74200000D02*
X146910000Y-84890000D01*
%TO.N,INB1*%
X144400000Y-97000000D02*
X144400000Y-101600000D01*
X143000000Y-103000000D02*
X134000000Y-103000000D01*
X143600000Y-102400000D02*
X143000000Y-103000000D01*
X151990000Y-74200000D02*
X151990000Y-83610000D01*
X151990000Y-83610000D02*
X145000000Y-90600000D01*
X144400000Y-101600000D02*
X143600000Y-102400000D01*
%TO.N,ENB*%
X157070000Y-82430000D02*
X157070000Y-74200000D01*
X128000000Y-95200000D02*
X144300000Y-95200000D01*
X144300000Y-95200000D02*
X157070000Y-82430000D01*
%TO.N,INA1*%
X116600000Y-98800000D02*
X116600000Y-103000000D01*
X144370000Y-85430000D02*
X143000000Y-86800000D01*
X119000000Y-87800000D02*
X119000000Y-96800000D01*
X117800000Y-97600000D02*
X116600000Y-98800000D01*
X144370000Y-74200000D02*
X144370000Y-85430000D01*
X143000000Y-86800000D02*
X120000000Y-86800000D01*
X119000000Y-96800000D02*
X118200000Y-97600000D01*
X118200000Y-97600000D02*
X117800000Y-97600000D01*
X120000000Y-86800000D02*
X119000000Y-87800000D01*
%TO.N,ENA*%
X144000000Y-89400000D02*
X149450000Y-83950000D01*
X122200000Y-89400000D02*
X144000000Y-89400000D01*
X121600000Y-90000000D02*
X122200000Y-89400000D01*
X149450000Y-83950000D02*
X149450000Y-74200000D01*
%TO.N,+3V3*%
X134210000Y-115010000D02*
X134210000Y-122460000D01*
X123000000Y-103800000D02*
X134210000Y-115010000D01*
%TO.N,INB0*%
X154530000Y-82970000D02*
X145300000Y-92200000D01*
X154530000Y-74200000D02*
X154530000Y-82970000D01*
X145300000Y-92200000D02*
X134000000Y-92200000D01*
%TO.N,Net-(Q1-G)*%
X102500000Y-96250000D02*
X101000000Y-96250000D01*
X105500000Y-93250000D02*
X102500000Y-96250000D01*
%TO.N,Net-(Q2-G)*%
X105750000Y-103500000D02*
X104250000Y-103500000D01*
X104250000Y-103500000D02*
X102250000Y-105500000D01*
%TO.N,Net-(Q3-G)*%
X94600000Y-88200000D02*
X96800000Y-90400000D01*
X94600000Y-86800000D02*
X94600000Y-88200000D01*
X94600000Y-80200000D02*
X94600000Y-86800000D01*
X96800000Y-90400000D02*
X97200000Y-90800000D01*
X93000000Y-78600000D02*
X94600000Y-80200000D01*
X97200000Y-90800000D02*
X105000000Y-90800000D01*
%TO.N,Net-(Q4-G)*%
X101250000Y-103250000D02*
X101250000Y-103750000D01*
X88000000Y-118000000D02*
X87750000Y-118250000D01*
X87750000Y-118250000D02*
X87250000Y-118750000D01*
X105750000Y-101000000D02*
X103500000Y-101000000D01*
X91750000Y-109250000D02*
X88000000Y-113000000D01*
X88000000Y-113500000D02*
X88000000Y-118000000D01*
X103500000Y-101000000D02*
X101250000Y-103250000D01*
X100000000Y-109250000D02*
X91750000Y-109250000D01*
X101250000Y-108000000D02*
X100000000Y-109250000D01*
X88000000Y-113000000D02*
X88000000Y-113500000D01*
X101250000Y-103750000D02*
X101250000Y-108000000D01*
%TO.N,Net-(Q5-G)*%
X143126516Y-91250000D02*
X140250000Y-91250000D01*
X144938258Y-89438258D02*
X143126516Y-91250000D01*
%TO.N,Net-(Q7-G)*%
X139250000Y-101750000D02*
X142750000Y-101750000D01*
X142750000Y-101750000D02*
X143000000Y-101500000D01*
%TO.N,Net-(Q8-G)*%
X137250000Y-117750000D02*
X138500000Y-119000000D01*
X138750000Y-119250000D02*
X154250000Y-119250000D01*
X138500000Y-119000000D02*
X138750000Y-119250000D01*
X137250000Y-107000000D02*
X137250000Y-117750000D01*
%TO.N,Net-(U1-IN_B)*%
X116600000Y-95000000D02*
X116600000Y-91800000D01*
X117800000Y-96200000D02*
X116600000Y-95000000D01*
%TO.N,Net-(U5-IN_B)*%
X127000000Y-97800000D02*
X131000000Y-97800000D01*
X131000000Y-97800000D02*
X132000000Y-96800000D01*
%TO.N,Net-(U6-IN_B)*%
X125000000Y-103000000D02*
X127600000Y-105600000D01*
X127600000Y-105600000D02*
X129000000Y-105600000D01*
%TD*%
%TA.AperFunction,Conductor*%
%TO.N,GND*%
G36*
X140603332Y-122062779D02*
G01*
X140647680Y-122091280D01*
X140666400Y-122110000D01*
X141461578Y-122110000D01*
X141423498Y-122148080D01*
X141356619Y-122263919D01*
X141322000Y-122393120D01*
X141322000Y-122526880D01*
X141356619Y-122656081D01*
X141423498Y-122771920D01*
X141461578Y-122810000D01*
X140666400Y-122810000D01*
X140647680Y-122828720D01*
X140586357Y-122862204D01*
X140516665Y-122857219D01*
X140472319Y-122828719D01*
X140453600Y-122810000D01*
X139658422Y-122810000D01*
X139696502Y-122771920D01*
X139763381Y-122656081D01*
X139798000Y-122526880D01*
X139798000Y-122393120D01*
X139763381Y-122263919D01*
X139696502Y-122148080D01*
X139658422Y-122110000D01*
X140453598Y-122110000D01*
X140472317Y-122091281D01*
X140533640Y-122057795D01*
X140603332Y-122062779D01*
G37*
%TD.AperFunction*%
%TA.AperFunction,Conductor*%
G36*
X168502702Y-72000617D02*
G01*
X168886771Y-72017386D01*
X168897506Y-72018326D01*
X169275971Y-72068152D01*
X169286597Y-72070025D01*
X169659284Y-72152648D01*
X169669710Y-72155442D01*
X170033765Y-72270227D01*
X170043911Y-72273920D01*
X170396578Y-72420000D01*
X170406369Y-72424566D01*
X170744942Y-72600816D01*
X170754310Y-72606224D01*
X171076244Y-72811318D01*
X171085105Y-72817523D01*
X171387930Y-73049889D01*
X171396217Y-73056843D01*
X171677635Y-73314715D01*
X171685284Y-73322364D01*
X171943156Y-73603782D01*
X171950110Y-73612069D01*
X172182476Y-73914894D01*
X172188681Y-73923755D01*
X172393775Y-74245689D01*
X172399183Y-74255057D01*
X172575430Y-74593623D01*
X172580002Y-74603427D01*
X172726075Y-74956078D01*
X172729775Y-74966244D01*
X172844554Y-75330278D01*
X172847354Y-75340727D01*
X172929971Y-75713389D01*
X172931849Y-75724042D01*
X172981671Y-76102473D01*
X172982614Y-76113249D01*
X172999382Y-76497297D01*
X172999500Y-76502706D01*
X172999500Y-119997293D01*
X172999382Y-120002702D01*
X172982614Y-120386750D01*
X172981671Y-120397526D01*
X172931849Y-120775957D01*
X172929971Y-120786610D01*
X172847354Y-121159272D01*
X172844554Y-121169721D01*
X172729775Y-121533755D01*
X172726075Y-121543921D01*
X172580002Y-121896572D01*
X172575430Y-121906376D01*
X172399183Y-122244942D01*
X172393775Y-122254310D01*
X172188681Y-122576244D01*
X172182476Y-122585105D01*
X171950110Y-122887930D01*
X171943156Y-122896217D01*
X171685284Y-123177635D01*
X171677635Y-123185284D01*
X171396217Y-123443156D01*
X171387930Y-123450110D01*
X171085105Y-123682476D01*
X171076244Y-123688681D01*
X170754310Y-123893775D01*
X170744942Y-123899183D01*
X170406376Y-124075430D01*
X170396572Y-124080002D01*
X170043921Y-124226075D01*
X170033755Y-124229775D01*
X169669721Y-124344554D01*
X169659272Y-124347354D01*
X169286610Y-124429971D01*
X169275957Y-124431849D01*
X168897526Y-124481671D01*
X168886750Y-124482614D01*
X168502703Y-124499382D01*
X168497294Y-124499500D01*
X78502706Y-124499500D01*
X78497297Y-124499382D01*
X78113249Y-124482614D01*
X78102473Y-124481671D01*
X77724042Y-124431849D01*
X77713389Y-124429971D01*
X77340727Y-124347354D01*
X77330278Y-124344554D01*
X76966244Y-124229775D01*
X76956078Y-124226075D01*
X76603427Y-124080002D01*
X76593623Y-124075430D01*
X76255057Y-123899183D01*
X76245689Y-123893775D01*
X75923755Y-123688681D01*
X75914894Y-123682476D01*
X75612069Y-123450110D01*
X75603782Y-123443156D01*
X75322364Y-123185284D01*
X75314715Y-123177635D01*
X75056843Y-122896217D01*
X75049889Y-122887930D01*
X74817523Y-122585105D01*
X74811318Y-122576244D01*
X74708210Y-122414396D01*
X74668869Y-122352643D01*
X83315900Y-122352643D01*
X83315900Y-122567356D01*
X83349489Y-122779428D01*
X83415837Y-122983630D01*
X83415838Y-122983633D01*
X83499652Y-123148125D01*
X83513317Y-123174944D01*
X83639523Y-123348651D01*
X83791349Y-123500477D01*
X83965056Y-123626683D01*
X84058888Y-123674492D01*
X84156366Y-123724161D01*
X84156369Y-123724162D01*
X84258470Y-123757336D01*
X84360573Y-123790511D01*
X84572643Y-123824100D01*
X84572644Y-123824100D01*
X84787356Y-123824100D01*
X84787357Y-123824100D01*
X84999427Y-123790511D01*
X85203633Y-123724161D01*
X85394944Y-123626683D01*
X85568651Y-123500477D01*
X85720477Y-123348651D01*
X85846683Y-123174944D01*
X85846683Y-123174943D01*
X85849547Y-123171002D01*
X85851478Y-123172405D01*
X85895927Y-123132078D01*
X85964840Y-123120558D01*
X86029042Y-123148125D01*
X86049478Y-123171709D01*
X86050453Y-123171002D01*
X86053316Y-123174943D01*
X86053317Y-123174944D01*
X86179523Y-123348651D01*
X86331349Y-123500477D01*
X86505056Y-123626683D01*
X86598888Y-123674492D01*
X86696366Y-123724161D01*
X86696369Y-123724162D01*
X86798470Y-123757336D01*
X86900573Y-123790511D01*
X87112643Y-123824100D01*
X87112644Y-123824100D01*
X87327356Y-123824100D01*
X87327357Y-123824100D01*
X87539427Y-123790511D01*
X87743633Y-123724161D01*
X87934944Y-123626683D01*
X88108651Y-123500477D01*
X88260477Y-123348651D01*
X88386683Y-123174944D01*
X88386683Y-123174943D01*
X88389547Y-123171002D01*
X88391478Y-123172405D01*
X88435927Y-123132078D01*
X88504840Y-123120558D01*
X88569042Y-123148125D01*
X88589478Y-123171709D01*
X88590453Y-123171002D01*
X88593316Y-123174943D01*
X88593317Y-123174944D01*
X88719523Y-123348651D01*
X88871349Y-123500477D01*
X89045056Y-123626683D01*
X89138888Y-123674492D01*
X89236366Y-123724161D01*
X89236369Y-123724162D01*
X89338470Y-123757336D01*
X89440573Y-123790511D01*
X89652643Y-123824100D01*
X89652644Y-123824100D01*
X89867356Y-123824100D01*
X89867357Y-123824100D01*
X90079427Y-123790511D01*
X90283633Y-123724161D01*
X90474944Y-123626683D01*
X90648651Y-123500477D01*
X90800477Y-123348651D01*
X90926683Y-123174944D01*
X90926683Y-123174943D01*
X90929547Y-123171002D01*
X90931478Y-123172405D01*
X90975927Y-123132078D01*
X91044840Y-123120558D01*
X91109042Y-123148125D01*
X91129478Y-123171709D01*
X91130453Y-123171002D01*
X91133316Y-123174943D01*
X91133317Y-123174944D01*
X91259523Y-123348651D01*
X91411349Y-123500477D01*
X91585056Y-123626683D01*
X91678888Y-123674492D01*
X91776366Y-123724161D01*
X91776369Y-123724162D01*
X91878470Y-123757336D01*
X91980573Y-123790511D01*
X92192643Y-123824100D01*
X92192644Y-123824100D01*
X92407356Y-123824100D01*
X92407357Y-123824100D01*
X92619427Y-123790511D01*
X92823633Y-123724161D01*
X93014944Y-123626683D01*
X93188651Y-123500477D01*
X93340477Y-123348651D01*
X93466683Y-123174944D01*
X93466683Y-123174943D01*
X93469547Y-123171002D01*
X93471478Y-123172405D01*
X93515927Y-123132078D01*
X93584840Y-123120558D01*
X93649042Y-123148125D01*
X93669478Y-123171709D01*
X93670453Y-123171002D01*
X93673316Y-123174943D01*
X93673317Y-123174944D01*
X93799523Y-123348651D01*
X93951349Y-123500477D01*
X94125056Y-123626683D01*
X94218888Y-123674492D01*
X94316366Y-123724161D01*
X94316369Y-123724162D01*
X94418470Y-123757336D01*
X94520573Y-123790511D01*
X94732643Y-123824100D01*
X94732644Y-123824100D01*
X94947356Y-123824100D01*
X94947357Y-123824100D01*
X95159427Y-123790511D01*
X95363633Y-123724161D01*
X95554944Y-123626683D01*
X95728651Y-123500477D01*
X95880477Y-123348651D01*
X96006683Y-123174944D01*
X96104161Y-122983633D01*
X96170511Y-122779427D01*
X96204100Y-122567357D01*
X96204100Y-122352643D01*
X96170511Y-122140573D01*
X96137336Y-122038470D01*
X96104162Y-121936369D01*
X96104161Y-121936366D01*
X96020266Y-121771715D01*
X96006683Y-121745056D01*
X95880477Y-121571349D01*
X95728651Y-121419523D01*
X95554944Y-121293317D01*
X95530998Y-121281116D01*
X95363633Y-121195838D01*
X95363630Y-121195837D01*
X95159428Y-121129489D01*
X95053392Y-121112694D01*
X94947357Y-121095900D01*
X94732643Y-121095900D01*
X94661953Y-121107096D01*
X94520571Y-121129489D01*
X94316369Y-121195837D01*
X94316366Y-121195838D01*
X94125055Y-121293317D01*
X94097886Y-121313057D01*
X93951349Y-121419523D01*
X93951347Y-121419525D01*
X93951346Y-121419525D01*
X93799525Y-121571346D01*
X93799525Y-121571347D01*
X93799523Y-121571349D01*
X93687918Y-121724959D01*
X93670453Y-121748998D01*
X93668562Y-121747624D01*
X93623848Y-121788030D01*
X93554911Y-121799411D01*
X93490765Y-121771715D01*
X93470488Y-121748314D01*
X93469547Y-121748998D01*
X93452082Y-121724960D01*
X93340477Y-121571349D01*
X93188651Y-121419523D01*
X93014944Y-121293317D01*
X92990998Y-121281116D01*
X92823633Y-121195838D01*
X92823630Y-121195837D01*
X92619428Y-121129489D01*
X92513392Y-121112694D01*
X92407357Y-121095900D01*
X92192643Y-121095900D01*
X92121953Y-121107096D01*
X91980571Y-121129489D01*
X91776369Y-121195837D01*
X91776366Y-121195838D01*
X91585055Y-121293317D01*
X91557886Y-121313057D01*
X91411349Y-121419523D01*
X91411347Y-121419525D01*
X91411346Y-121419525D01*
X91259525Y-121571346D01*
X91259525Y-121571347D01*
X91259523Y-121571349D01*
X91147918Y-121724959D01*
X91130453Y-121748998D01*
X91128562Y-121747624D01*
X91083848Y-121788030D01*
X91014911Y-121799411D01*
X90950765Y-121771715D01*
X90930488Y-121748314D01*
X90929547Y-121748998D01*
X90912082Y-121724960D01*
X90800477Y-121571349D01*
X90648651Y-121419523D01*
X90474944Y-121293317D01*
X90450998Y-121281116D01*
X90283633Y-121195838D01*
X90283630Y-121195837D01*
X90079428Y-121129489D01*
X89973392Y-121112694D01*
X89867357Y-121095900D01*
X89652643Y-121095900D01*
X89581953Y-121107096D01*
X89440571Y-121129489D01*
X89236369Y-121195837D01*
X89236366Y-121195838D01*
X89045055Y-121293317D01*
X89017886Y-121313057D01*
X88871349Y-121419523D01*
X88871347Y-121419525D01*
X88871346Y-121419525D01*
X88719525Y-121571346D01*
X88719525Y-121571347D01*
X88719523Y-121571349D01*
X88607918Y-121724959D01*
X88590453Y-121748998D01*
X88588562Y-121747624D01*
X88543848Y-121788030D01*
X88474911Y-121799411D01*
X88410765Y-121771715D01*
X88390488Y-121748314D01*
X88389547Y-121748998D01*
X88372082Y-121724960D01*
X88260477Y-121571349D01*
X88108651Y-121419523D01*
X87934944Y-121293317D01*
X87910998Y-121281116D01*
X87743633Y-121195838D01*
X87743630Y-121195837D01*
X87539428Y-121129489D01*
X87433392Y-121112694D01*
X87327357Y-121095900D01*
X87112643Y-121095900D01*
X87041953Y-121107096D01*
X86900571Y-121129489D01*
X86696369Y-121195837D01*
X86696366Y-121195838D01*
X86505055Y-121293317D01*
X86477886Y-121313057D01*
X86331349Y-121419523D01*
X86331347Y-121419525D01*
X86331346Y-121419525D01*
X86179525Y-121571346D01*
X86179525Y-121571347D01*
X86179523Y-121571349D01*
X86067918Y-121724959D01*
X86050453Y-121748998D01*
X86048562Y-121747624D01*
X86003848Y-121788030D01*
X85934911Y-121799411D01*
X85870765Y-121771715D01*
X85850488Y-121748314D01*
X85849547Y-121748998D01*
X85832082Y-121724960D01*
X85720477Y-121571349D01*
X85568651Y-121419523D01*
X85394944Y-121293317D01*
X85370998Y-121281116D01*
X85203633Y-121195838D01*
X85203630Y-121195837D01*
X84999428Y-121129489D01*
X84893392Y-121112694D01*
X84787357Y-121095900D01*
X84572643Y-121095900D01*
X84501953Y-121107096D01*
X84360571Y-121129489D01*
X84156369Y-121195837D01*
X84156366Y-121195838D01*
X83965055Y-121293317D01*
X83937886Y-121313057D01*
X83791349Y-121419523D01*
X83791347Y-121419525D01*
X83791346Y-121419525D01*
X83639525Y-121571346D01*
X83639525Y-121571347D01*
X83639523Y-121571349D01*
X83585322Y-121645949D01*
X83513317Y-121745055D01*
X83415838Y-121936366D01*
X83415837Y-121936369D01*
X83349489Y-122140571D01*
X83315900Y-122352643D01*
X74668869Y-122352643D01*
X74606224Y-122254310D01*
X74600816Y-122244942D01*
X74546484Y-122140571D01*
X74424566Y-121906369D01*
X74419997Y-121896572D01*
X74273920Y-121543911D01*
X74270224Y-121533755D01*
X74267945Y-121526526D01*
X74155442Y-121169710D01*
X74152648Y-121159284D01*
X74070025Y-120786597D01*
X74068152Y-120775971D01*
X74018326Y-120397506D01*
X74017386Y-120386771D01*
X74000618Y-120002702D01*
X74000500Y-119997293D01*
X74000500Y-119878711D01*
X76649500Y-119878711D01*
X76649500Y-120121288D01*
X76681161Y-120361785D01*
X76743947Y-120596104D01*
X76836773Y-120820205D01*
X76836776Y-120820212D01*
X76958064Y-121030289D01*
X76958066Y-121030292D01*
X76958067Y-121030293D01*
X77105733Y-121222736D01*
X77105739Y-121222743D01*
X77277256Y-121394260D01*
X77277263Y-121394266D01*
X77390321Y-121481018D01*
X77469711Y-121541936D01*
X77679788Y-121663224D01*
X77903900Y-121756054D01*
X78138211Y-121818838D01*
X78318586Y-121842584D01*
X78378711Y-121850500D01*
X78378712Y-121850500D01*
X78621289Y-121850500D01*
X78669388Y-121844167D01*
X78861789Y-121818838D01*
X79096100Y-121756054D01*
X79320212Y-121663224D01*
X79530289Y-121541936D01*
X79722738Y-121394265D01*
X79894265Y-121222738D01*
X80041936Y-121030289D01*
X80163224Y-120820212D01*
X80256054Y-120596100D01*
X80318838Y-120361789D01*
X80350500Y-120121288D01*
X80350500Y-119878712D01*
X80318838Y-119638211D01*
X80256054Y-119403900D01*
X80163224Y-119179788D01*
X80041936Y-118969711D01*
X79909368Y-118796945D01*
X79894266Y-118777263D01*
X79894260Y-118777256D01*
X79788157Y-118671153D01*
X86449500Y-118671153D01*
X86449500Y-118828846D01*
X86480261Y-118983489D01*
X86480264Y-118983501D01*
X86540602Y-119129172D01*
X86540609Y-119129185D01*
X86628210Y-119260288D01*
X86628213Y-119260292D01*
X86739707Y-119371786D01*
X86739711Y-119371789D01*
X86870814Y-119459390D01*
X86870827Y-119459397D01*
X87016498Y-119519735D01*
X87016503Y-119519737D01*
X87171153Y-119550499D01*
X87171156Y-119550500D01*
X87171158Y-119550500D01*
X87328844Y-119550500D01*
X87328845Y-119550499D01*
X87483497Y-119519737D01*
X87629179Y-119459394D01*
X87760289Y-119371789D01*
X87871789Y-119260289D01*
X87959394Y-119129179D01*
X88019737Y-118983497D01*
X88019739Y-118983489D01*
X88021507Y-118977662D01*
X88023854Y-118978374D01*
X88027621Y-118971169D01*
X88031643Y-118952682D01*
X88050363Y-118927672D01*
X88051226Y-118926023D01*
X88052747Y-118924473D01*
X88180276Y-118796943D01*
X88180281Y-118796940D01*
X88190485Y-118786735D01*
X88190487Y-118786735D01*
X88536735Y-118440487D01*
X88612356Y-118327312D01*
X88664445Y-118201558D01*
X88674800Y-118149500D01*
X88689159Y-118077313D01*
X88691000Y-118068060D01*
X88691000Y-113337583D01*
X88710685Y-113270544D01*
X88727319Y-113249902D01*
X91999902Y-109977319D01*
X92061225Y-109943834D01*
X92087583Y-109941000D01*
X100068060Y-109941000D01*
X100157870Y-109923134D01*
X100201557Y-109914445D01*
X100327311Y-109862356D01*
X100440487Y-109786735D01*
X101786735Y-108440486D01*
X101862356Y-108327311D01*
X101914445Y-108201557D01*
X101941000Y-108068057D01*
X101941000Y-107931943D01*
X101941000Y-106405813D01*
X101960685Y-106338774D01*
X102013489Y-106293019D01*
X102082647Y-106283075D01*
X102089192Y-106284196D01*
X102171155Y-106300500D01*
X102171158Y-106300500D01*
X102328844Y-106300500D01*
X102328845Y-106300499D01*
X102483497Y-106269737D01*
X102629179Y-106209394D01*
X102760289Y-106121789D01*
X102871789Y-106010289D01*
X102959394Y-105879179D01*
X103019737Y-105733497D01*
X103019738Y-105733489D01*
X103021505Y-105727668D01*
X103023859Y-105728382D01*
X103051194Y-105676055D01*
X103052737Y-105674483D01*
X104499903Y-104227319D01*
X104561226Y-104193834D01*
X104587584Y-104191000D01*
X105305677Y-104191000D01*
X105364509Y-104208275D01*
X105365447Y-104206521D01*
X105370815Y-104209390D01*
X105370821Y-104209394D01*
X105516503Y-104269737D01*
X105671153Y-104300499D01*
X105671156Y-104300500D01*
X105671158Y-104300500D01*
X105828844Y-104300500D01*
X105828845Y-104300499D01*
X105983497Y-104269737D01*
X106129179Y-104209394D01*
X106260289Y-104121789D01*
X106371789Y-104010289D01*
X106459394Y-103879179D01*
X106519737Y-103733497D01*
X106550500Y-103578842D01*
X106550500Y-103421158D01*
X106550500Y-103421155D01*
X106550499Y-103421153D01*
X106524353Y-103289711D01*
X106519737Y-103266503D01*
X106484710Y-103181939D01*
X106459397Y-103120827D01*
X106459390Y-103120814D01*
X106371789Y-102989711D01*
X106371786Y-102989707D01*
X106260292Y-102878213D01*
X106260288Y-102878210D01*
X106129185Y-102790609D01*
X106129172Y-102790602D01*
X105983501Y-102730264D01*
X105983489Y-102730261D01*
X105828845Y-102699500D01*
X105828842Y-102699500D01*
X105671158Y-102699500D01*
X105671155Y-102699500D01*
X105516510Y-102730261D01*
X105516498Y-102730264D01*
X105370828Y-102790602D01*
X105365447Y-102793479D01*
X105364294Y-102791323D01*
X105307869Y-102808981D01*
X105305677Y-102809000D01*
X104181940Y-102809000D01*
X104098635Y-102825571D01*
X104057286Y-102833796D01*
X104048443Y-102835555D01*
X104048438Y-102835556D01*
X103922690Y-102887642D01*
X103922687Y-102887644D01*
X103809514Y-102963263D01*
X103809507Y-102963269D01*
X102152681Y-104620096D01*
X102091358Y-104653581D01*
X102021666Y-104648597D01*
X101965733Y-104606725D01*
X101941316Y-104541261D01*
X101941000Y-104532415D01*
X101941000Y-103587583D01*
X101960685Y-103520544D01*
X101977319Y-103499902D01*
X103749902Y-101727319D01*
X103811225Y-101693834D01*
X103837583Y-101691000D01*
X105305677Y-101691000D01*
X105364509Y-101708275D01*
X105365447Y-101706521D01*
X105370815Y-101709390D01*
X105370821Y-101709394D01*
X105516503Y-101769737D01*
X105671002Y-101800469D01*
X105671153Y-101800499D01*
X105671156Y-101800500D01*
X105671158Y-101800500D01*
X105828844Y-101800500D01*
X105828845Y-101800499D01*
X105983497Y-101769737D01*
X106129179Y-101709394D01*
X106260289Y-101621789D01*
X106371789Y-101510289D01*
X106459394Y-101379179D01*
X106462854Y-101370827D01*
X106517163Y-101239711D01*
X106519737Y-101233497D01*
X106550500Y-101078842D01*
X106550500Y-100921158D01*
X106550500Y-100921155D01*
X106550499Y-100921153D01*
X106524531Y-100790606D01*
X106519737Y-100766503D01*
X106519735Y-100766498D01*
X106459397Y-100620827D01*
X106459390Y-100620814D01*
X106371789Y-100489711D01*
X106371786Y-100489707D01*
X106260292Y-100378213D01*
X106260288Y-100378210D01*
X106129185Y-100290609D01*
X106129172Y-100290602D01*
X105983501Y-100230264D01*
X105983489Y-100230261D01*
X105828845Y-100199500D01*
X105828842Y-100199500D01*
X105671158Y-100199500D01*
X105671155Y-100199500D01*
X105516510Y-100230261D01*
X105516498Y-100230264D01*
X105370828Y-100290602D01*
X105365447Y-100293479D01*
X105364294Y-100291323D01*
X105307869Y-100308981D01*
X105305677Y-100309000D01*
X103431940Y-100309000D01*
X103353904Y-100324523D01*
X103353903Y-100324523D01*
X103298450Y-100335553D01*
X103298438Y-100335556D01*
X103172695Y-100387640D01*
X103172682Y-100387647D01*
X103059514Y-100463264D01*
X103059510Y-100463267D01*
X100713269Y-102809507D01*
X100713263Y-102809514D01*
X100659152Y-102890499D01*
X100659151Y-102890501D01*
X100637648Y-102922680D01*
X100637640Y-102922695D01*
X100585556Y-103048438D01*
X100585553Y-103048448D01*
X100559000Y-103181939D01*
X100559000Y-107662416D01*
X100539315Y-107729455D01*
X100522681Y-107750097D01*
X99750097Y-108522681D01*
X99688774Y-108556166D01*
X99662416Y-108559000D01*
X91681940Y-108559000D01*
X91548448Y-108585553D01*
X91548438Y-108585556D01*
X91422695Y-108637640D01*
X91422682Y-108637647D01*
X91309514Y-108713264D01*
X91309510Y-108713267D01*
X87463269Y-112559507D01*
X87463263Y-112559514D01*
X87387644Y-112672687D01*
X87387642Y-112672690D01*
X87335556Y-112798438D01*
X87335553Y-112798448D01*
X87309000Y-112931939D01*
X87309000Y-117662416D01*
X87300355Y-117691856D01*
X87293832Y-117721843D01*
X87290077Y-117726858D01*
X87289315Y-117729455D01*
X87272681Y-117750097D01*
X87213265Y-117809513D01*
X87213262Y-117809514D01*
X87213263Y-117809515D01*
X87075569Y-117947207D01*
X87021753Y-117976591D01*
X87022331Y-117978495D01*
X87016500Y-117980263D01*
X86870827Y-118040602D01*
X86870814Y-118040609D01*
X86739711Y-118128210D01*
X86739707Y-118128213D01*
X86628213Y-118239707D01*
X86628210Y-118239711D01*
X86540609Y-118370814D01*
X86540602Y-118370827D01*
X86480264Y-118516498D01*
X86480261Y-118516510D01*
X86449500Y-118671153D01*
X79788157Y-118671153D01*
X79722743Y-118605739D01*
X79722736Y-118605733D01*
X79530293Y-118458067D01*
X79530292Y-118458066D01*
X79530289Y-118458064D01*
X79320212Y-118336776D01*
X79320205Y-118336773D01*
X79096104Y-118243947D01*
X78896590Y-118190487D01*
X78861789Y-118181162D01*
X78861788Y-118181161D01*
X78861785Y-118181161D01*
X78621289Y-118149500D01*
X78621288Y-118149500D01*
X78378712Y-118149500D01*
X78378711Y-118149500D01*
X78138214Y-118181161D01*
X77903895Y-118243947D01*
X77679794Y-118336773D01*
X77679785Y-118336777D01*
X77469706Y-118458067D01*
X77277263Y-118605733D01*
X77277256Y-118605739D01*
X77105739Y-118777256D01*
X77105733Y-118777263D01*
X76958067Y-118969706D01*
X76958064Y-118969710D01*
X76958064Y-118969711D01*
X76953062Y-118978374D01*
X76836777Y-119179785D01*
X76836773Y-119179794D01*
X76743947Y-119403895D01*
X76681161Y-119638214D01*
X76649500Y-119878711D01*
X74000500Y-119878711D01*
X74000500Y-100462135D01*
X78719500Y-100462135D01*
X78719500Y-102537870D01*
X78719501Y-102537876D01*
X78725908Y-102597483D01*
X78776202Y-102732328D01*
X78776206Y-102732335D01*
X78862452Y-102847544D01*
X78862455Y-102847547D01*
X78977664Y-102933793D01*
X78977671Y-102933797D01*
X79112517Y-102984091D01*
X79112516Y-102984091D01*
X79119444Y-102984835D01*
X79172127Y-102990500D01*
X83227872Y-102990499D01*
X83287483Y-102984091D01*
X83422331Y-102933796D01*
X83537546Y-102847546D01*
X83623796Y-102732331D01*
X83674091Y-102597483D01*
X83680500Y-102537873D01*
X83680499Y-100462128D01*
X83674091Y-100402517D01*
X83668542Y-100387640D01*
X83623797Y-100267671D01*
X83623793Y-100267664D01*
X83537547Y-100152455D01*
X83537544Y-100152452D01*
X83422335Y-100066206D01*
X83422328Y-100066202D01*
X83287482Y-100015908D01*
X83287483Y-100015908D01*
X83227883Y-100009501D01*
X83227881Y-100009500D01*
X83227873Y-100009500D01*
X83227864Y-100009500D01*
X79172129Y-100009500D01*
X79172123Y-100009501D01*
X79112516Y-100015908D01*
X78977671Y-100066202D01*
X78977664Y-100066206D01*
X78862455Y-100152452D01*
X78862452Y-100152455D01*
X78776206Y-100267664D01*
X78776202Y-100267671D01*
X78725908Y-100402517D01*
X78719501Y-100462116D01*
X78719501Y-100462123D01*
X78719500Y-100462135D01*
X74000500Y-100462135D01*
X74000500Y-96382695D01*
X78719500Y-96382695D01*
X78719500Y-96617304D01*
X78756201Y-96849027D01*
X78828697Y-97072150D01*
X78881954Y-97176672D01*
X78904452Y-97220827D01*
X78935212Y-97281195D01*
X79073104Y-97470989D01*
X79073108Y-97470994D01*
X79239005Y-97636891D01*
X79239010Y-97636895D01*
X79404558Y-97757171D01*
X79428808Y-97774790D01*
X79633021Y-97878842D01*
X79637849Y-97881302D01*
X79749410Y-97917550D01*
X79860974Y-97953799D01*
X80092695Y-97990500D01*
X80092696Y-97990500D01*
X82307304Y-97990500D01*
X82307305Y-97990500D01*
X82539026Y-97953799D01*
X82762153Y-97881301D01*
X82971192Y-97774790D01*
X83160996Y-97636890D01*
X83326890Y-97470996D01*
X83464790Y-97281192D01*
X83571301Y-97072153D01*
X83643799Y-96849026D01*
X83680500Y-96617305D01*
X83680500Y-96382695D01*
X83646995Y-96171153D01*
X100199500Y-96171153D01*
X100199500Y-96328846D01*
X100230261Y-96483489D01*
X100230264Y-96483501D01*
X100290602Y-96629172D01*
X100290609Y-96629185D01*
X100378210Y-96760288D01*
X100378213Y-96760292D01*
X100489707Y-96871786D01*
X100489711Y-96871789D01*
X100620814Y-96959390D01*
X100620827Y-96959397D01*
X100766498Y-97019735D01*
X100766503Y-97019737D01*
X100921153Y-97050499D01*
X100921156Y-97050500D01*
X100921158Y-97050500D01*
X101078844Y-97050500D01*
X101078845Y-97050499D01*
X101233497Y-97019737D01*
X101379179Y-96959394D01*
X101379188Y-96959387D01*
X101384553Y-96956521D01*
X101385705Y-96958676D01*
X101442131Y-96941019D01*
X101444323Y-96941000D01*
X102568060Y-96941000D01*
X102667834Y-96921153D01*
X102701557Y-96914445D01*
X102827311Y-96862356D01*
X102852572Y-96845477D01*
X102940487Y-96786735D01*
X105674427Y-94052792D01*
X105728241Y-94023408D01*
X105727664Y-94021506D01*
X105733486Y-94019739D01*
X105733497Y-94019737D01*
X105879179Y-93959394D01*
X106010289Y-93871789D01*
X106121789Y-93760289D01*
X106209394Y-93629179D01*
X106269737Y-93483497D01*
X106300500Y-93328842D01*
X106300500Y-93171158D01*
X106300500Y-93171155D01*
X106300499Y-93171153D01*
X106272948Y-93032647D01*
X106269737Y-93016503D01*
X106269735Y-93016498D01*
X106209397Y-92870827D01*
X106209390Y-92870814D01*
X106121789Y-92739711D01*
X106121786Y-92739707D01*
X106010292Y-92628213D01*
X106010288Y-92628210D01*
X105879185Y-92540609D01*
X105879172Y-92540602D01*
X105733501Y-92480264D01*
X105733489Y-92480261D01*
X105578845Y-92449500D01*
X105578842Y-92449500D01*
X105421158Y-92449500D01*
X105421155Y-92449500D01*
X105266510Y-92480261D01*
X105266498Y-92480264D01*
X105120827Y-92540602D01*
X105120814Y-92540609D01*
X104989711Y-92628210D01*
X104989707Y-92628213D01*
X104878213Y-92739707D01*
X104878210Y-92739711D01*
X104790609Y-92870814D01*
X104790602Y-92870827D01*
X104730264Y-93016498D01*
X104728496Y-93022329D01*
X104726163Y-93021621D01*
X104698720Y-93074030D01*
X104697206Y-93075571D01*
X102250097Y-95522681D01*
X102188774Y-95556166D01*
X102162416Y-95559000D01*
X101444323Y-95559000D01*
X101385490Y-95541724D01*
X101384553Y-95543479D01*
X101379181Y-95540607D01*
X101379179Y-95540606D01*
X101379176Y-95540605D01*
X101379171Y-95540602D01*
X101233501Y-95480264D01*
X101233489Y-95480261D01*
X101078845Y-95449500D01*
X101078842Y-95449500D01*
X100921158Y-95449500D01*
X100921155Y-95449500D01*
X100766510Y-95480261D01*
X100766498Y-95480264D01*
X100620827Y-95540602D01*
X100620814Y-95540609D01*
X100489711Y-95628210D01*
X100489707Y-95628213D01*
X100378213Y-95739707D01*
X100378210Y-95739711D01*
X100290609Y-95870814D01*
X100290602Y-95870827D01*
X100230264Y-96016498D01*
X100230261Y-96016510D01*
X100199500Y-96171153D01*
X83646995Y-96171153D01*
X83643799Y-96150974D01*
X83611307Y-96050972D01*
X83571302Y-95927849D01*
X83560435Y-95906521D01*
X83464790Y-95718808D01*
X83392133Y-95618804D01*
X83326895Y-95529010D01*
X83326891Y-95529005D01*
X83160994Y-95363108D01*
X83160989Y-95363104D01*
X82971195Y-95225212D01*
X82971194Y-95225211D01*
X82971192Y-95225210D01*
X82788144Y-95131942D01*
X82762150Y-95118697D01*
X82539027Y-95046201D01*
X82365385Y-95018699D01*
X82307305Y-95009500D01*
X80092695Y-95009500D01*
X80034615Y-95018699D01*
X79860972Y-95046201D01*
X79637849Y-95118697D01*
X79428804Y-95225212D01*
X79239010Y-95363104D01*
X79239005Y-95363108D01*
X79073108Y-95529005D01*
X79073104Y-95529010D01*
X78935212Y-95718804D01*
X78828697Y-95927849D01*
X78756201Y-96150972D01*
X78719500Y-96382695D01*
X74000500Y-96382695D01*
X74000500Y-91721153D01*
X115799500Y-91721153D01*
X115799500Y-91878846D01*
X115830261Y-92033489D01*
X115830264Y-92033501D01*
X115890603Y-92179174D01*
X115893475Y-92184546D01*
X115891317Y-92185699D01*
X115908980Y-92242108D01*
X115909000Y-92244322D01*
X115909000Y-95068058D01*
X115921708Y-95131942D01*
X115935555Y-95201557D01*
X115935556Y-95201561D01*
X115987642Y-95327309D01*
X115987644Y-95327312D01*
X116063263Y-95440485D01*
X116063269Y-95440492D01*
X116997205Y-96374427D01*
X117026590Y-96428242D01*
X117028494Y-96427665D01*
X117030264Y-96433501D01*
X117090602Y-96579172D01*
X117090609Y-96579185D01*
X117178210Y-96710288D01*
X117178213Y-96710292D01*
X117280240Y-96812319D01*
X117313725Y-96873642D01*
X117308741Y-96943334D01*
X117280240Y-96987681D01*
X117178213Y-97089707D01*
X117178210Y-97089711D01*
X117090609Y-97220814D01*
X117090602Y-97220827D01*
X117030263Y-97366500D01*
X117028493Y-97372337D01*
X117026161Y-97371629D01*
X116998709Y-97424041D01*
X116997205Y-97425571D01*
X116063267Y-98359510D01*
X116063266Y-98359511D01*
X116035880Y-98400499D01*
X116035879Y-98400500D01*
X115987647Y-98472682D01*
X115987640Y-98472695D01*
X115935556Y-98598438D01*
X115935553Y-98598448D01*
X115909000Y-98731939D01*
X115909000Y-102555677D01*
X115891724Y-102614509D01*
X115893479Y-102615447D01*
X115890602Y-102620828D01*
X115830264Y-102766498D01*
X115830261Y-102766510D01*
X115799500Y-102921153D01*
X115799500Y-103078846D01*
X115830261Y-103233489D01*
X115830264Y-103233501D01*
X115890602Y-103379172D01*
X115890609Y-103379185D01*
X115978210Y-103510288D01*
X115978213Y-103510292D01*
X116089707Y-103621786D01*
X116089711Y-103621789D01*
X116220814Y-103709390D01*
X116220827Y-103709397D01*
X116366498Y-103769735D01*
X116366503Y-103769737D01*
X116521153Y-103800499D01*
X116521156Y-103800500D01*
X116521158Y-103800500D01*
X116678844Y-103800500D01*
X116678845Y-103800499D01*
X116833497Y-103769737D01*
X116950790Y-103721153D01*
X122199500Y-103721153D01*
X122199500Y-103878846D01*
X122230261Y-104033489D01*
X122230264Y-104033501D01*
X122290602Y-104179172D01*
X122290609Y-104179185D01*
X122378210Y-104310288D01*
X122378213Y-104310292D01*
X122489707Y-104421786D01*
X122489711Y-104421789D01*
X122620814Y-104509390D01*
X122620823Y-104509395D01*
X122766503Y-104569737D01*
X122772325Y-104571503D01*
X122771612Y-104573851D01*
X122823964Y-104601214D01*
X122825571Y-104602793D01*
X133482681Y-115259903D01*
X133516166Y-115321226D01*
X133519000Y-115347584D01*
X133519000Y-121212739D01*
X133499315Y-121279778D01*
X133467886Y-121313057D01*
X133321347Y-121419524D01*
X133169525Y-121571346D01*
X133169525Y-121571347D01*
X133169523Y-121571349D01*
X133057918Y-121724959D01*
X133040453Y-121748998D01*
X133038562Y-121747624D01*
X132993848Y-121788030D01*
X132924911Y-121799411D01*
X132860765Y-121771715D01*
X132840488Y-121748314D01*
X132839547Y-121748998D01*
X132822082Y-121724960D01*
X132710477Y-121571349D01*
X132558651Y-121419523D01*
X132384944Y-121293317D01*
X132360998Y-121281116D01*
X132193633Y-121195838D01*
X132193630Y-121195837D01*
X131989428Y-121129489D01*
X131883392Y-121112694D01*
X131777357Y-121095900D01*
X131562643Y-121095900D01*
X131491953Y-121107096D01*
X131350571Y-121129489D01*
X131146369Y-121195837D01*
X131146366Y-121195838D01*
X130955055Y-121293317D01*
X130927886Y-121313057D01*
X130781349Y-121419523D01*
X130781347Y-121419525D01*
X130781346Y-121419525D01*
X130629525Y-121571346D01*
X130629525Y-121571347D01*
X130629523Y-121571349D01*
X130517918Y-121724959D01*
X130500453Y-121748998D01*
X130498562Y-121747624D01*
X130453848Y-121788030D01*
X130384911Y-121799411D01*
X130320765Y-121771715D01*
X130300488Y-121748314D01*
X130299547Y-121748998D01*
X130282082Y-121724960D01*
X130170477Y-121571349D01*
X130018651Y-121419523D01*
X129844944Y-121293317D01*
X129820998Y-121281116D01*
X129653633Y-121195838D01*
X129653630Y-121195837D01*
X129449428Y-121129489D01*
X129343392Y-121112694D01*
X129237357Y-121095900D01*
X129022643Y-121095900D01*
X128951953Y-121107096D01*
X128810571Y-121129489D01*
X128606369Y-121195837D01*
X128606366Y-121195838D01*
X128415055Y-121293317D01*
X128387886Y-121313057D01*
X128241349Y-121419523D01*
X128241347Y-121419525D01*
X128241346Y-121419525D01*
X128089525Y-121571346D01*
X128089525Y-121571347D01*
X128089523Y-121571349D01*
X127977918Y-121724959D01*
X127960453Y-121748998D01*
X127958562Y-121747624D01*
X127913848Y-121788030D01*
X127844911Y-121799411D01*
X127780765Y-121771715D01*
X127760488Y-121748314D01*
X127759547Y-121748998D01*
X127742082Y-121724960D01*
X127630477Y-121571349D01*
X127478651Y-121419523D01*
X127304944Y-121293317D01*
X127280998Y-121281116D01*
X127113633Y-121195838D01*
X127113630Y-121195837D01*
X126909428Y-121129489D01*
X126803392Y-121112694D01*
X126697357Y-121095900D01*
X126482643Y-121095900D01*
X126411953Y-121107096D01*
X126270571Y-121129489D01*
X126066369Y-121195837D01*
X126066366Y-121195838D01*
X125875055Y-121293317D01*
X125847886Y-121313057D01*
X125701349Y-121419523D01*
X125701347Y-121419525D01*
X125701346Y-121419525D01*
X125549525Y-121571346D01*
X125549525Y-121571347D01*
X125549523Y-121571349D01*
X125495322Y-121645949D01*
X125423317Y-121745055D01*
X125325838Y-121936366D01*
X125325837Y-121936369D01*
X125259489Y-122140571D01*
X125225900Y-122352643D01*
X125225900Y-122567356D01*
X125259489Y-122779428D01*
X125325837Y-122983630D01*
X125325838Y-122983633D01*
X125409652Y-123148125D01*
X125423317Y-123174944D01*
X125549523Y-123348651D01*
X125701349Y-123500477D01*
X125875056Y-123626683D01*
X125968888Y-123674492D01*
X126066366Y-123724161D01*
X126066369Y-123724162D01*
X126168470Y-123757336D01*
X126270573Y-123790511D01*
X126482643Y-123824100D01*
X126482644Y-123824100D01*
X126697356Y-123824100D01*
X126697357Y-123824100D01*
X126909427Y-123790511D01*
X127113633Y-123724161D01*
X127304944Y-123626683D01*
X127478651Y-123500477D01*
X127630477Y-123348651D01*
X127756683Y-123174944D01*
X127756683Y-123174943D01*
X127759547Y-123171002D01*
X127761478Y-123172405D01*
X127805927Y-123132078D01*
X127874840Y-123120558D01*
X127939042Y-123148125D01*
X127959478Y-123171709D01*
X127960453Y-123171002D01*
X127963316Y-123174943D01*
X127963317Y-123174944D01*
X128089523Y-123348651D01*
X128241349Y-123500477D01*
X128415056Y-123626683D01*
X128508888Y-123674492D01*
X128606366Y-123724161D01*
X128606369Y-123724162D01*
X128708470Y-123757336D01*
X128810573Y-123790511D01*
X129022643Y-123824100D01*
X129022644Y-123824100D01*
X129237356Y-123824100D01*
X129237357Y-123824100D01*
X129449427Y-123790511D01*
X129653633Y-123724161D01*
X129844944Y-123626683D01*
X130018651Y-123500477D01*
X130170477Y-123348651D01*
X130296683Y-123174944D01*
X130296683Y-123174943D01*
X130299547Y-123171002D01*
X130301478Y-123172405D01*
X130345927Y-123132078D01*
X130414840Y-123120558D01*
X130479042Y-123148125D01*
X130499478Y-123171709D01*
X130500453Y-123171002D01*
X130503316Y-123174943D01*
X130503317Y-123174944D01*
X130629523Y-123348651D01*
X130781349Y-123500477D01*
X130955056Y-123626683D01*
X131048888Y-123674492D01*
X131146366Y-123724161D01*
X131146369Y-123724162D01*
X131248470Y-123757336D01*
X131350573Y-123790511D01*
X131562643Y-123824100D01*
X131562644Y-123824100D01*
X131777356Y-123824100D01*
X131777357Y-123824100D01*
X131989427Y-123790511D01*
X132193633Y-123724161D01*
X132384944Y-123626683D01*
X132558651Y-123500477D01*
X132710477Y-123348651D01*
X132836683Y-123174944D01*
X132836683Y-123174943D01*
X132839547Y-123171002D01*
X132841478Y-123172405D01*
X132885927Y-123132078D01*
X132954840Y-123120558D01*
X133019042Y-123148125D01*
X133039478Y-123171709D01*
X133040453Y-123171002D01*
X133043316Y-123174943D01*
X133043317Y-123174944D01*
X133169523Y-123348651D01*
X133321349Y-123500477D01*
X133495056Y-123626683D01*
X133588888Y-123674492D01*
X133686366Y-123724161D01*
X133686369Y-123724162D01*
X133788470Y-123757336D01*
X133890573Y-123790511D01*
X134102643Y-123824100D01*
X134102644Y-123824100D01*
X134317356Y-123824100D01*
X134317357Y-123824100D01*
X134529427Y-123790511D01*
X134733633Y-123724161D01*
X134924944Y-123626683D01*
X135098651Y-123500477D01*
X135250477Y-123348651D01*
X135376683Y-123174944D01*
X135376683Y-123174943D01*
X135379547Y-123171002D01*
X135381478Y-123172405D01*
X135425927Y-123132078D01*
X135494840Y-123120558D01*
X135559042Y-123148125D01*
X135579478Y-123171709D01*
X135580453Y-123171002D01*
X135583316Y-123174943D01*
X135583317Y-123174944D01*
X135709523Y-123348651D01*
X135861349Y-123500477D01*
X136035056Y-123626683D01*
X136128888Y-123674492D01*
X136226366Y-123724161D01*
X136226369Y-123724162D01*
X136328470Y-123757336D01*
X136430573Y-123790511D01*
X136642643Y-123824100D01*
X136642644Y-123824100D01*
X136857356Y-123824100D01*
X136857357Y-123824100D01*
X137069427Y-123790511D01*
X137273633Y-123724161D01*
X137464944Y-123626683D01*
X137638651Y-123500477D01*
X137790477Y-123348651D01*
X137902082Y-123195039D01*
X137957412Y-123152374D01*
X138027025Y-123146395D01*
X138088820Y-123179001D01*
X138123177Y-123239839D01*
X138126400Y-123267924D01*
X138126400Y-123368385D01*
X138126402Y-123368408D01*
X138129308Y-123393469D01*
X138129309Y-123393473D01*
X138174611Y-123496074D01*
X138174614Y-123496079D01*
X138253920Y-123575385D01*
X138253925Y-123575388D01*
X138356523Y-123620689D01*
X138381606Y-123623599D01*
X138939999Y-123623599D01*
X138940000Y-123623598D01*
X138940000Y-122828422D01*
X138978080Y-122866502D01*
X139093919Y-122933381D01*
X139223120Y-122968000D01*
X139356880Y-122968000D01*
X139486081Y-122933381D01*
X139601920Y-122866502D01*
X139640000Y-122828422D01*
X139640000Y-123623599D01*
X140198386Y-123623599D01*
X140198408Y-123623597D01*
X140223469Y-123620691D01*
X140223473Y-123620690D01*
X140326074Y-123575388D01*
X140326079Y-123575385D01*
X140405385Y-123496079D01*
X140405388Y-123496074D01*
X140446565Y-123402817D01*
X140491650Y-123349440D01*
X140558436Y-123328912D01*
X140625719Y-123347750D01*
X140672136Y-123399972D01*
X140673435Y-123402817D01*
X140714611Y-123496074D01*
X140714614Y-123496079D01*
X140793920Y-123575385D01*
X140793925Y-123575388D01*
X140896523Y-123620689D01*
X140921606Y-123623599D01*
X141479999Y-123623599D01*
X141480000Y-123623598D01*
X141480000Y-122828422D01*
X141518080Y-122866502D01*
X141633919Y-122933381D01*
X141763120Y-122968000D01*
X141896880Y-122968000D01*
X142026081Y-122933381D01*
X142141920Y-122866502D01*
X142180000Y-122828422D01*
X142180000Y-123623599D01*
X142738386Y-123623599D01*
X142738408Y-123623597D01*
X142763469Y-123620691D01*
X142763473Y-123620690D01*
X142866074Y-123575388D01*
X142866079Y-123575385D01*
X142945385Y-123496079D01*
X142945388Y-123496074D01*
X142990689Y-123393477D01*
X142990689Y-123393475D01*
X142993599Y-123368394D01*
X142993599Y-123267927D01*
X143013283Y-123200888D01*
X143066086Y-123155132D01*
X143135245Y-123145188D01*
X143198801Y-123174212D01*
X143217917Y-123195040D01*
X143222166Y-123200888D01*
X143329523Y-123348651D01*
X143481349Y-123500477D01*
X143655056Y-123626683D01*
X143748888Y-123674492D01*
X143846366Y-123724161D01*
X143846369Y-123724162D01*
X143948470Y-123757336D01*
X144050573Y-123790511D01*
X144262643Y-123824100D01*
X144262644Y-123824100D01*
X144477356Y-123824100D01*
X144477357Y-123824100D01*
X144689427Y-123790511D01*
X144893633Y-123724161D01*
X145084944Y-123626683D01*
X145258651Y-123500477D01*
X145410477Y-123348651D01*
X145536683Y-123174944D01*
X145634161Y-122983633D01*
X145700511Y-122779427D01*
X145734100Y-122567357D01*
X145734100Y-122352643D01*
X148085900Y-122352643D01*
X148085900Y-122567356D01*
X148119489Y-122779428D01*
X148185837Y-122983630D01*
X148185838Y-122983633D01*
X148269652Y-123148125D01*
X148283317Y-123174944D01*
X148409523Y-123348651D01*
X148561349Y-123500477D01*
X148735056Y-123626683D01*
X148828888Y-123674492D01*
X148926366Y-123724161D01*
X148926369Y-123724162D01*
X149028470Y-123757336D01*
X149130573Y-123790511D01*
X149342643Y-123824100D01*
X149342644Y-123824100D01*
X149557356Y-123824100D01*
X149557357Y-123824100D01*
X149769427Y-123790511D01*
X149973633Y-123724161D01*
X150164944Y-123626683D01*
X150338651Y-123500477D01*
X150490477Y-123348651D01*
X150616683Y-123174944D01*
X150616683Y-123174943D01*
X150619547Y-123171002D01*
X150621478Y-123172405D01*
X150665927Y-123132078D01*
X150734840Y-123120558D01*
X150799042Y-123148125D01*
X150819478Y-123171709D01*
X150820453Y-123171002D01*
X150823316Y-123174943D01*
X150823317Y-123174944D01*
X150949523Y-123348651D01*
X151101349Y-123500477D01*
X151275056Y-123626683D01*
X151368888Y-123674492D01*
X151466366Y-123724161D01*
X151466369Y-123724162D01*
X151568470Y-123757336D01*
X151670573Y-123790511D01*
X151882643Y-123824100D01*
X151882644Y-123824100D01*
X152097356Y-123824100D01*
X152097357Y-123824100D01*
X152309427Y-123790511D01*
X152513633Y-123724161D01*
X152704944Y-123626683D01*
X152878651Y-123500477D01*
X153030477Y-123348651D01*
X153156683Y-123174944D01*
X153156683Y-123174943D01*
X153159547Y-123171002D01*
X153161478Y-123172405D01*
X153205927Y-123132078D01*
X153274840Y-123120558D01*
X153339042Y-123148125D01*
X153359478Y-123171709D01*
X153360453Y-123171002D01*
X153363316Y-123174943D01*
X153363317Y-123174944D01*
X153489523Y-123348651D01*
X153641349Y-123500477D01*
X153815056Y-123626683D01*
X153908888Y-123674492D01*
X154006366Y-123724161D01*
X154006369Y-123724162D01*
X154108470Y-123757336D01*
X154210573Y-123790511D01*
X154422643Y-123824100D01*
X154422644Y-123824100D01*
X154637356Y-123824100D01*
X154637357Y-123824100D01*
X154849427Y-123790511D01*
X155053633Y-123724161D01*
X155244944Y-123626683D01*
X155418651Y-123500477D01*
X155570477Y-123348651D01*
X155696683Y-123174944D01*
X155696683Y-123174943D01*
X155699547Y-123171002D01*
X155701478Y-123172405D01*
X155745927Y-123132078D01*
X155814840Y-123120558D01*
X155879042Y-123148125D01*
X155899478Y-123171709D01*
X155900453Y-123171002D01*
X155903316Y-123174943D01*
X155903317Y-123174944D01*
X156029523Y-123348651D01*
X156181349Y-123500477D01*
X156355056Y-123626683D01*
X156448888Y-123674492D01*
X156546366Y-123724161D01*
X156546369Y-123724162D01*
X156648470Y-123757336D01*
X156750573Y-123790511D01*
X156962643Y-123824100D01*
X156962644Y-123824100D01*
X157177356Y-123824100D01*
X157177357Y-123824100D01*
X157389427Y-123790511D01*
X157593633Y-123724161D01*
X157784944Y-123626683D01*
X157958651Y-123500477D01*
X158110477Y-123348651D01*
X158236683Y-123174944D01*
X158236683Y-123174943D01*
X158239547Y-123171002D01*
X158241478Y-123172405D01*
X158285927Y-123132078D01*
X158354840Y-123120558D01*
X158419042Y-123148125D01*
X158439478Y-123171709D01*
X158440453Y-123171002D01*
X158443316Y-123174943D01*
X158443317Y-123174944D01*
X158569523Y-123348651D01*
X158721349Y-123500477D01*
X158895056Y-123626683D01*
X158988888Y-123674492D01*
X159086366Y-123724161D01*
X159086369Y-123724162D01*
X159188470Y-123757336D01*
X159290573Y-123790511D01*
X159502643Y-123824100D01*
X159502644Y-123824100D01*
X159717356Y-123824100D01*
X159717357Y-123824100D01*
X159929427Y-123790511D01*
X160133633Y-123724161D01*
X160324944Y-123626683D01*
X160498651Y-123500477D01*
X160650477Y-123348651D01*
X160776683Y-123174944D01*
X160776683Y-123174943D01*
X160779547Y-123171002D01*
X160781478Y-123172405D01*
X160825927Y-123132078D01*
X160894840Y-123120558D01*
X160959042Y-123148125D01*
X160979478Y-123171709D01*
X160980453Y-123171002D01*
X160983316Y-123174943D01*
X160983317Y-123174944D01*
X161109523Y-123348651D01*
X161261349Y-123500477D01*
X161435056Y-123626683D01*
X161528888Y-123674492D01*
X161626366Y-123724161D01*
X161626369Y-123724162D01*
X161728470Y-123757336D01*
X161830573Y-123790511D01*
X162042643Y-123824100D01*
X162042644Y-123824100D01*
X162257356Y-123824100D01*
X162257357Y-123824100D01*
X162469427Y-123790511D01*
X162673633Y-123724161D01*
X162864944Y-123626683D01*
X163038651Y-123500477D01*
X163190477Y-123348651D01*
X163316683Y-123174944D01*
X163414161Y-122983633D01*
X163480511Y-122779427D01*
X163514100Y-122567357D01*
X163514100Y-122352643D01*
X163480511Y-122140573D01*
X163447336Y-122038470D01*
X163414162Y-121936369D01*
X163414161Y-121936366D01*
X163330266Y-121771715D01*
X163316683Y-121745056D01*
X163190477Y-121571349D01*
X163038651Y-121419523D01*
X162864944Y-121293317D01*
X162840998Y-121281116D01*
X162673633Y-121195838D01*
X162673630Y-121195837D01*
X162469428Y-121129489D01*
X162363392Y-121112694D01*
X162257357Y-121095900D01*
X162042643Y-121095900D01*
X161971953Y-121107096D01*
X161830571Y-121129489D01*
X161626369Y-121195837D01*
X161626366Y-121195838D01*
X161435055Y-121293317D01*
X161407886Y-121313057D01*
X161261349Y-121419523D01*
X161261347Y-121419525D01*
X161261346Y-121419525D01*
X161109525Y-121571346D01*
X161109525Y-121571347D01*
X161109523Y-121571349D01*
X160997918Y-121724959D01*
X160980453Y-121748998D01*
X160978562Y-121747624D01*
X160933848Y-121788030D01*
X160864911Y-121799411D01*
X160800765Y-121771715D01*
X160780488Y-121748314D01*
X160779547Y-121748998D01*
X160762082Y-121724960D01*
X160650477Y-121571349D01*
X160498651Y-121419523D01*
X160324944Y-121293317D01*
X160300998Y-121281116D01*
X160133633Y-121195838D01*
X160133630Y-121195837D01*
X159929428Y-121129489D01*
X159823392Y-121112694D01*
X159717357Y-121095900D01*
X159502643Y-121095900D01*
X159431953Y-121107096D01*
X159290571Y-121129489D01*
X159086369Y-121195837D01*
X159086366Y-121195838D01*
X158895055Y-121293317D01*
X158867886Y-121313057D01*
X158721349Y-121419523D01*
X158721347Y-121419525D01*
X158721346Y-121419525D01*
X158569525Y-121571346D01*
X158569525Y-121571347D01*
X158569523Y-121571349D01*
X158457918Y-121724959D01*
X158440453Y-121748998D01*
X158438562Y-121747624D01*
X158393848Y-121788030D01*
X158324911Y-121799411D01*
X158260765Y-121771715D01*
X158240488Y-121748314D01*
X158239547Y-121748998D01*
X158222082Y-121724960D01*
X158110477Y-121571349D01*
X157958651Y-121419523D01*
X157784944Y-121293317D01*
X157760998Y-121281116D01*
X157593633Y-121195838D01*
X157593630Y-121195837D01*
X157389428Y-121129489D01*
X157283392Y-121112694D01*
X157177357Y-121095900D01*
X156962643Y-121095900D01*
X156891953Y-121107096D01*
X156750571Y-121129489D01*
X156546369Y-121195837D01*
X156546366Y-121195838D01*
X156355055Y-121293317D01*
X156327886Y-121313057D01*
X156181349Y-121419523D01*
X156181347Y-121419525D01*
X156181346Y-121419525D01*
X156029525Y-121571346D01*
X156029525Y-121571347D01*
X156029523Y-121571349D01*
X155917918Y-121724959D01*
X155900453Y-121748998D01*
X155898562Y-121747624D01*
X155853848Y-121788030D01*
X155784911Y-121799411D01*
X155720765Y-121771715D01*
X155700488Y-121748314D01*
X155699547Y-121748998D01*
X155682082Y-121724960D01*
X155570477Y-121571349D01*
X155418651Y-121419523D01*
X155244944Y-121293317D01*
X155220998Y-121281116D01*
X155053633Y-121195838D01*
X155053630Y-121195837D01*
X154849428Y-121129489D01*
X154743392Y-121112694D01*
X154637357Y-121095900D01*
X154422643Y-121095900D01*
X154351953Y-121107096D01*
X154210571Y-121129489D01*
X154006369Y-121195837D01*
X154006366Y-121195838D01*
X153815055Y-121293317D01*
X153787886Y-121313057D01*
X153641349Y-121419523D01*
X153641347Y-121419525D01*
X153641346Y-121419525D01*
X153489525Y-121571346D01*
X153489525Y-121571347D01*
X153489523Y-121571349D01*
X153377918Y-121724959D01*
X153360453Y-121748998D01*
X153358562Y-121747624D01*
X153313848Y-121788030D01*
X153244911Y-121799411D01*
X153180765Y-121771715D01*
X153160488Y-121748314D01*
X153159547Y-121748998D01*
X153142082Y-121724960D01*
X153030477Y-121571349D01*
X152878651Y-121419523D01*
X152704944Y-121293317D01*
X152680998Y-121281116D01*
X152513633Y-121195838D01*
X152513630Y-121195837D01*
X152309428Y-121129489D01*
X152203392Y-121112694D01*
X152097357Y-121095900D01*
X151882643Y-121095900D01*
X151811953Y-121107096D01*
X151670571Y-121129489D01*
X151466369Y-121195837D01*
X151466366Y-121195838D01*
X151275055Y-121293317D01*
X151247886Y-121313057D01*
X151101349Y-121419523D01*
X151101347Y-121419525D01*
X151101346Y-121419525D01*
X150949525Y-121571346D01*
X150949525Y-121571347D01*
X150949523Y-121571349D01*
X150837918Y-121724959D01*
X150820453Y-121748998D01*
X150818562Y-121747624D01*
X150773848Y-121788030D01*
X150704911Y-121799411D01*
X150640765Y-121771715D01*
X150620488Y-121748314D01*
X150619547Y-121748998D01*
X150602082Y-121724960D01*
X150490477Y-121571349D01*
X150338651Y-121419523D01*
X150164944Y-121293317D01*
X150140998Y-121281116D01*
X149973633Y-121195838D01*
X149973630Y-121195837D01*
X149769428Y-121129489D01*
X149663392Y-121112694D01*
X149557357Y-121095900D01*
X149342643Y-121095900D01*
X149271953Y-121107096D01*
X149130571Y-121129489D01*
X148926369Y-121195837D01*
X148926366Y-121195838D01*
X148735055Y-121293317D01*
X148707886Y-121313057D01*
X148561349Y-121419523D01*
X148561347Y-121419525D01*
X148561346Y-121419525D01*
X148409525Y-121571346D01*
X148409525Y-121571347D01*
X148409523Y-121571349D01*
X148355322Y-121645949D01*
X148283317Y-121745055D01*
X148185838Y-121936366D01*
X148185837Y-121936369D01*
X148119489Y-122140571D01*
X148085900Y-122352643D01*
X145734100Y-122352643D01*
X145700511Y-122140573D01*
X145667336Y-122038470D01*
X145634162Y-121936369D01*
X145634161Y-121936366D01*
X145550266Y-121771715D01*
X145536683Y-121745056D01*
X145410477Y-121571349D01*
X145258651Y-121419523D01*
X145084944Y-121293317D01*
X145060998Y-121281116D01*
X144893633Y-121195838D01*
X144893630Y-121195837D01*
X144689428Y-121129489D01*
X144583392Y-121112694D01*
X144477357Y-121095900D01*
X144262643Y-121095900D01*
X144191953Y-121107096D01*
X144050571Y-121129489D01*
X143846369Y-121195837D01*
X143846366Y-121195838D01*
X143655055Y-121293317D01*
X143627886Y-121313057D01*
X143481349Y-121419523D01*
X143481347Y-121419525D01*
X143481346Y-121419525D01*
X143329524Y-121571347D01*
X143217917Y-121724960D01*
X143162586Y-121767625D01*
X143092973Y-121773604D01*
X143031178Y-121740998D01*
X142996821Y-121680159D01*
X142993599Y-121652074D01*
X142993599Y-121551614D01*
X142993597Y-121551591D01*
X142990691Y-121526530D01*
X142990690Y-121526526D01*
X142945388Y-121423925D01*
X142945385Y-121423920D01*
X142866079Y-121344614D01*
X142866074Y-121344611D01*
X142763476Y-121299310D01*
X142738394Y-121296400D01*
X142180000Y-121296400D01*
X142180000Y-122091578D01*
X142141920Y-122053498D01*
X142026081Y-121986619D01*
X141896880Y-121952000D01*
X141763120Y-121952000D01*
X141633919Y-121986619D01*
X141518080Y-122053498D01*
X141480000Y-122091578D01*
X141480000Y-121296400D01*
X140921614Y-121296400D01*
X140921591Y-121296402D01*
X140896530Y-121299308D01*
X140896526Y-121299309D01*
X140793925Y-121344611D01*
X140793920Y-121344614D01*
X140714614Y-121423920D01*
X140714609Y-121423928D01*
X140673433Y-121517183D01*
X140628347Y-121570560D01*
X140561561Y-121591087D01*
X140494279Y-121572249D01*
X140447863Y-121520025D01*
X140446564Y-121517182D01*
X140405388Y-121423924D01*
X140405385Y-121423920D01*
X140326079Y-121344614D01*
X140326074Y-121344611D01*
X140223476Y-121299310D01*
X140198394Y-121296400D01*
X139640000Y-121296400D01*
X139640000Y-122091578D01*
X139601920Y-122053498D01*
X139486081Y-121986619D01*
X139356880Y-121952000D01*
X139223120Y-121952000D01*
X139093919Y-121986619D01*
X138978080Y-122053498D01*
X138940000Y-122091578D01*
X138940000Y-121296400D01*
X138381614Y-121296400D01*
X138381591Y-121296402D01*
X138356530Y-121299308D01*
X138356526Y-121299309D01*
X138253925Y-121344611D01*
X138253920Y-121344614D01*
X138174614Y-121423920D01*
X138174611Y-121423925D01*
X138129310Y-121526522D01*
X138129310Y-121526524D01*
X138126400Y-121551605D01*
X138126400Y-121652073D01*
X138106715Y-121719112D01*
X138053911Y-121764867D01*
X137984753Y-121774811D01*
X137921197Y-121745786D01*
X137902082Y-121724959D01*
X137849127Y-121652073D01*
X137790477Y-121571349D01*
X137638651Y-121419523D01*
X137464944Y-121293317D01*
X137440998Y-121281116D01*
X137273633Y-121195838D01*
X137273630Y-121195837D01*
X137069428Y-121129489D01*
X136963392Y-121112694D01*
X136857357Y-121095900D01*
X136642643Y-121095900D01*
X136571953Y-121107096D01*
X136430571Y-121129489D01*
X136226369Y-121195837D01*
X136226366Y-121195838D01*
X136035055Y-121293317D01*
X136007886Y-121313057D01*
X135861349Y-121419523D01*
X135861347Y-121419525D01*
X135861346Y-121419525D01*
X135709525Y-121571346D01*
X135709525Y-121571347D01*
X135709523Y-121571349D01*
X135597918Y-121724959D01*
X135580453Y-121748998D01*
X135578562Y-121747624D01*
X135533848Y-121788030D01*
X135464911Y-121799411D01*
X135400765Y-121771715D01*
X135380488Y-121748314D01*
X135379547Y-121748998D01*
X135362082Y-121724960D01*
X135250477Y-121571349D01*
X135098651Y-121419523D01*
X134952114Y-121313057D01*
X134909449Y-121257726D01*
X134901000Y-121212739D01*
X134901000Y-114941939D01*
X134874446Y-114808448D01*
X134874445Y-114808447D01*
X134874445Y-114808443D01*
X134874443Y-114808438D01*
X134822357Y-114682690D01*
X134822355Y-114682687D01*
X134746736Y-114569514D01*
X134746730Y-114569507D01*
X127179969Y-107002747D01*
X127098375Y-106921153D01*
X136449500Y-106921153D01*
X136449500Y-107078846D01*
X136480261Y-107233489D01*
X136480264Y-107233501D01*
X136540603Y-107379174D01*
X136543475Y-107384546D01*
X136541317Y-107385699D01*
X136558980Y-107442108D01*
X136559000Y-107444322D01*
X136559000Y-117818060D01*
X136585144Y-117949489D01*
X136585145Y-117949506D01*
X136585147Y-117949506D01*
X136585554Y-117951555D01*
X136637644Y-118077313D01*
X136713263Y-118190485D01*
X136713269Y-118190492D01*
X137958924Y-119436145D01*
X137958945Y-119436168D01*
X138309509Y-119786732D01*
X138309513Y-119786735D01*
X138422681Y-119862352D01*
X138422685Y-119862354D01*
X138422688Y-119862356D01*
X138548442Y-119914445D01*
X138567439Y-119918223D01*
X138623905Y-119929455D01*
X138681941Y-119941000D01*
X138681942Y-119941000D01*
X153805677Y-119941000D01*
X153864509Y-119958275D01*
X153865447Y-119956521D01*
X153870815Y-119959390D01*
X153870821Y-119959394D01*
X153870827Y-119959396D01*
X153870828Y-119959397D01*
X154016498Y-120019735D01*
X154016503Y-120019737D01*
X154171153Y-120050499D01*
X154171156Y-120050500D01*
X154171158Y-120050500D01*
X154328844Y-120050500D01*
X154328845Y-120050499D01*
X154483497Y-120019737D01*
X154629179Y-119959394D01*
X154749930Y-119878711D01*
X166649500Y-119878711D01*
X166649500Y-120121288D01*
X166681161Y-120361785D01*
X166743947Y-120596104D01*
X166836773Y-120820205D01*
X166836776Y-120820212D01*
X166958064Y-121030289D01*
X166958066Y-121030292D01*
X166958067Y-121030293D01*
X167105733Y-121222736D01*
X167105739Y-121222743D01*
X167277256Y-121394260D01*
X167277263Y-121394266D01*
X167390321Y-121481018D01*
X167469711Y-121541936D01*
X167679788Y-121663224D01*
X167903900Y-121756054D01*
X168138211Y-121818838D01*
X168318586Y-121842584D01*
X168378711Y-121850500D01*
X168378712Y-121850500D01*
X168621289Y-121850500D01*
X168669388Y-121844167D01*
X168861789Y-121818838D01*
X169096100Y-121756054D01*
X169320212Y-121663224D01*
X169530289Y-121541936D01*
X169722738Y-121394265D01*
X169894265Y-121222738D01*
X170041936Y-121030289D01*
X170163224Y-120820212D01*
X170256054Y-120596100D01*
X170318838Y-120361789D01*
X170350500Y-120121288D01*
X170350500Y-119878712D01*
X170318838Y-119638211D01*
X170256054Y-119403900D01*
X170163224Y-119179788D01*
X170041936Y-118969711D01*
X169909368Y-118796945D01*
X169894266Y-118777263D01*
X169894260Y-118777256D01*
X169722743Y-118605739D01*
X169722736Y-118605733D01*
X169530293Y-118458067D01*
X169530292Y-118458066D01*
X169530289Y-118458064D01*
X169320212Y-118336776D01*
X169320205Y-118336773D01*
X169096104Y-118243947D01*
X168896590Y-118190487D01*
X168861789Y-118181162D01*
X168861788Y-118181161D01*
X168861785Y-118181161D01*
X168621289Y-118149500D01*
X168621288Y-118149500D01*
X168378712Y-118149500D01*
X168378711Y-118149500D01*
X168138214Y-118181161D01*
X167903895Y-118243947D01*
X167679794Y-118336773D01*
X167679785Y-118336777D01*
X167469706Y-118458067D01*
X167277263Y-118605733D01*
X167277256Y-118605739D01*
X167105739Y-118777256D01*
X167105733Y-118777263D01*
X166958067Y-118969706D01*
X166958064Y-118969710D01*
X166958064Y-118969711D01*
X166953062Y-118978374D01*
X166836777Y-119179785D01*
X166836773Y-119179794D01*
X166743947Y-119403895D01*
X166681161Y-119638214D01*
X166649500Y-119878711D01*
X154749930Y-119878711D01*
X154760289Y-119871789D01*
X154769726Y-119862352D01*
X154845107Y-119786972D01*
X154871786Y-119760292D01*
X154871789Y-119760289D01*
X154959394Y-119629179D01*
X155019737Y-119483497D01*
X155050500Y-119328842D01*
X155050500Y-119171158D01*
X155050500Y-119171155D01*
X155050499Y-119171153D01*
X155019738Y-119016510D01*
X155019737Y-119016503D01*
X154993302Y-118952682D01*
X154959397Y-118870827D01*
X154959390Y-118870814D01*
X154871789Y-118739711D01*
X154871786Y-118739707D01*
X154760292Y-118628213D01*
X154760288Y-118628210D01*
X154629185Y-118540609D01*
X154629172Y-118540602D01*
X154483501Y-118480264D01*
X154483489Y-118480261D01*
X154328845Y-118449500D01*
X154328842Y-118449500D01*
X154171158Y-118449500D01*
X154171155Y-118449500D01*
X154016510Y-118480261D01*
X154016498Y-118480264D01*
X153870828Y-118540602D01*
X153865447Y-118543479D01*
X153864294Y-118541323D01*
X153807869Y-118558981D01*
X153805677Y-118559000D01*
X139087584Y-118559000D01*
X139058147Y-118550356D01*
X139028158Y-118543833D01*
X139023140Y-118540077D01*
X139020545Y-118539315D01*
X138999908Y-118522686D01*
X138940487Y-118463265D01*
X138940484Y-118463263D01*
X138457484Y-117980263D01*
X137977319Y-117500097D01*
X137943834Y-117438774D01*
X137941000Y-117412416D01*
X137941000Y-107444322D01*
X137958277Y-107385482D01*
X137956525Y-107384546D01*
X137959390Y-107379184D01*
X137959394Y-107379179D01*
X138019737Y-107233497D01*
X138050500Y-107078842D01*
X138050500Y-106921158D01*
X138050500Y-106921155D01*
X138050499Y-106921153D01*
X138019738Y-106766510D01*
X138019737Y-106766503D01*
X138019735Y-106766498D01*
X137959397Y-106620827D01*
X137959390Y-106620814D01*
X137871789Y-106489711D01*
X137871786Y-106489707D01*
X137760292Y-106378213D01*
X137760288Y-106378210D01*
X137629185Y-106290609D01*
X137629172Y-106290602D01*
X137483501Y-106230264D01*
X137483489Y-106230261D01*
X137328845Y-106199500D01*
X137328842Y-106199500D01*
X137171158Y-106199500D01*
X137171155Y-106199500D01*
X137016510Y-106230261D01*
X137016498Y-106230264D01*
X136870827Y-106290602D01*
X136870814Y-106290609D01*
X136739711Y-106378210D01*
X136739707Y-106378213D01*
X136628213Y-106489707D01*
X136628210Y-106489711D01*
X136540609Y-106620814D01*
X136540602Y-106620827D01*
X136480264Y-106766498D01*
X136480261Y-106766510D01*
X136449500Y-106921153D01*
X127098375Y-106921153D01*
X123802793Y-103625571D01*
X123773403Y-103571748D01*
X123771503Y-103572325D01*
X123769737Y-103566503D01*
X123709395Y-103420823D01*
X123709390Y-103420814D01*
X123621789Y-103289711D01*
X123621786Y-103289707D01*
X123510292Y-103178213D01*
X123510288Y-103178210D01*
X123379185Y-103090609D01*
X123379172Y-103090602D01*
X123233501Y-103030264D01*
X123233489Y-103030261D01*
X123078845Y-102999500D01*
X123078842Y-102999500D01*
X122921158Y-102999500D01*
X122921155Y-102999500D01*
X122766510Y-103030261D01*
X122766498Y-103030264D01*
X122620827Y-103090602D01*
X122620814Y-103090609D01*
X122489711Y-103178210D01*
X122489707Y-103178213D01*
X122378213Y-103289707D01*
X122378210Y-103289711D01*
X122290609Y-103420814D01*
X122290602Y-103420827D01*
X122230264Y-103566498D01*
X122230261Y-103566510D01*
X122199500Y-103721153D01*
X116950790Y-103721153D01*
X116979179Y-103709394D01*
X117110289Y-103621789D01*
X117221789Y-103510289D01*
X117309394Y-103379179D01*
X117369737Y-103233497D01*
X117400500Y-103078842D01*
X117400500Y-102921158D01*
X117400500Y-102921155D01*
X117400499Y-102921153D01*
X124199500Y-102921153D01*
X124199500Y-103078846D01*
X124230261Y-103233489D01*
X124230264Y-103233501D01*
X124290602Y-103379172D01*
X124290609Y-103379185D01*
X124378210Y-103510288D01*
X124378213Y-103510292D01*
X124489707Y-103621786D01*
X124489711Y-103621789D01*
X124620814Y-103709390D01*
X124620823Y-103709395D01*
X124766503Y-103769737D01*
X124772325Y-103771503D01*
X124771612Y-103773851D01*
X124823964Y-103801214D01*
X124825571Y-103802793D01*
X127159507Y-106136730D01*
X127159510Y-106136733D01*
X127268254Y-106209393D01*
X127272690Y-106212357D01*
X127335714Y-106238462D01*
X127398443Y-106264445D01*
X127398447Y-106264445D01*
X127398448Y-106264446D01*
X127531939Y-106291000D01*
X127531942Y-106291000D01*
X128555677Y-106291000D01*
X128614509Y-106308275D01*
X128615447Y-106306521D01*
X128620815Y-106309390D01*
X128620821Y-106309394D01*
X128766503Y-106369737D01*
X128921153Y-106400499D01*
X128921156Y-106400500D01*
X128921158Y-106400500D01*
X129078844Y-106400500D01*
X129078845Y-106400499D01*
X129233497Y-106369737D01*
X129379179Y-106309394D01*
X129510289Y-106221789D01*
X129621789Y-106110289D01*
X129709394Y-105979179D01*
X129769737Y-105833497D01*
X129800500Y-105678842D01*
X129800500Y-105521158D01*
X129800500Y-105521155D01*
X129800499Y-105521153D01*
X129769738Y-105366510D01*
X129769737Y-105366503D01*
X129769735Y-105366498D01*
X129709397Y-105220827D01*
X129709390Y-105220814D01*
X129621789Y-105089711D01*
X129621786Y-105089707D01*
X129510292Y-104978213D01*
X129510288Y-104978210D01*
X129379185Y-104890609D01*
X129379172Y-104890602D01*
X129233501Y-104830264D01*
X129233489Y-104830261D01*
X129078845Y-104799500D01*
X129078842Y-104799500D01*
X128921158Y-104799500D01*
X128921155Y-104799500D01*
X128766510Y-104830261D01*
X128766498Y-104830264D01*
X128620828Y-104890602D01*
X128615447Y-104893479D01*
X128614294Y-104891323D01*
X128557869Y-104908981D01*
X128555677Y-104909000D01*
X127937584Y-104909000D01*
X127870545Y-104889315D01*
X127849903Y-104872681D01*
X125898375Y-102921153D01*
X133199500Y-102921153D01*
X133199500Y-103078846D01*
X133230261Y-103233489D01*
X133230264Y-103233501D01*
X133290602Y-103379172D01*
X133290609Y-103379185D01*
X133378210Y-103510288D01*
X133378213Y-103510292D01*
X133489707Y-103621786D01*
X133489711Y-103621789D01*
X133620814Y-103709390D01*
X133620827Y-103709397D01*
X133766498Y-103769735D01*
X133766503Y-103769737D01*
X133921153Y-103800499D01*
X133921156Y-103800500D01*
X133921158Y-103800500D01*
X134078844Y-103800500D01*
X134078845Y-103800499D01*
X134233497Y-103769737D01*
X134379179Y-103709394D01*
X134379188Y-103709387D01*
X134384553Y-103706521D01*
X134385705Y-103708676D01*
X134442131Y-103691019D01*
X134444323Y-103691000D01*
X143068060Y-103691000D01*
X143157870Y-103673134D01*
X143201557Y-103664445D01*
X143327311Y-103612356D01*
X143339793Y-103604015D01*
X143348134Y-103598443D01*
X143409563Y-103557397D01*
X143440487Y-103536735D01*
X144136735Y-102840487D01*
X144136735Y-102840486D01*
X144936735Y-102040486D01*
X145012356Y-101927311D01*
X145064445Y-101801557D01*
X145064655Y-101800500D01*
X145064657Y-101800491D01*
X145064660Y-101800491D01*
X145064660Y-101800474D01*
X145087162Y-101687349D01*
X145091000Y-101668059D01*
X145091000Y-100362135D01*
X163319500Y-100362135D01*
X163319500Y-102437870D01*
X163319501Y-102437876D01*
X163325908Y-102497483D01*
X163376202Y-102632328D01*
X163376206Y-102632335D01*
X163462452Y-102747544D01*
X163462455Y-102747547D01*
X163577664Y-102833793D01*
X163577671Y-102833797D01*
X163712517Y-102884091D01*
X163712516Y-102884091D01*
X163719444Y-102884835D01*
X163772127Y-102890500D01*
X167827872Y-102890499D01*
X167887483Y-102884091D01*
X168022331Y-102833796D01*
X168137546Y-102747546D01*
X168223796Y-102632331D01*
X168274091Y-102497483D01*
X168280500Y-102437873D01*
X168280499Y-100362128D01*
X168274091Y-100302517D01*
X168269648Y-100290606D01*
X168223797Y-100167671D01*
X168223793Y-100167664D01*
X168137547Y-100052455D01*
X168137544Y-100052452D01*
X168022335Y-99966206D01*
X168022328Y-99966202D01*
X167887482Y-99915908D01*
X167887483Y-99915908D01*
X167827883Y-99909501D01*
X167827881Y-99909500D01*
X167827873Y-99909500D01*
X167827864Y-99909500D01*
X163772129Y-99909500D01*
X163772123Y-99909501D01*
X163712516Y-99915908D01*
X163577671Y-99966202D01*
X163577664Y-99966206D01*
X163462455Y-100052452D01*
X163462452Y-100052455D01*
X163376206Y-100167664D01*
X163376202Y-100167671D01*
X163325908Y-100302517D01*
X163319501Y-100362116D01*
X163319501Y-100362123D01*
X163319500Y-100362135D01*
X145091000Y-100362135D01*
X145091000Y-97444322D01*
X145108277Y-97385482D01*
X145106525Y-97384546D01*
X145109390Y-97379184D01*
X145109394Y-97379179D01*
X145169737Y-97233497D01*
X145200500Y-97078842D01*
X145200500Y-96921158D01*
X145200500Y-96921155D01*
X145200499Y-96921153D01*
X145196291Y-96900000D01*
X145169737Y-96766503D01*
X145150955Y-96721158D01*
X145109397Y-96620827D01*
X145109390Y-96620814D01*
X145021789Y-96489711D01*
X145021786Y-96489707D01*
X144910290Y-96378211D01*
X144779185Y-96290609D01*
X144779172Y-96290602D01*
X144760083Y-96282695D01*
X163319500Y-96282695D01*
X163319500Y-96517305D01*
X163337218Y-96629172D01*
X163356201Y-96749027D01*
X163428697Y-96972150D01*
X163458308Y-97030264D01*
X163534187Y-97179185D01*
X163535212Y-97181195D01*
X163673104Y-97370989D01*
X163673108Y-97370994D01*
X163839005Y-97536891D01*
X163839010Y-97536895D01*
X163976643Y-97636890D01*
X164028808Y-97674790D01*
X164237847Y-97781301D01*
X164237849Y-97781302D01*
X164349410Y-97817550D01*
X164460974Y-97853799D01*
X164692695Y-97890500D01*
X164692696Y-97890500D01*
X166907304Y-97890500D01*
X166907305Y-97890500D01*
X167139026Y-97853799D01*
X167362153Y-97781301D01*
X167571192Y-97674790D01*
X167760996Y-97536890D01*
X167926890Y-97370996D01*
X168064790Y-97181192D01*
X168171301Y-96972153D01*
X168243799Y-96749026D01*
X168280500Y-96517305D01*
X168280500Y-96282695D01*
X168243799Y-96050974D01*
X168183193Y-95864446D01*
X168171302Y-95827849D01*
X168124876Y-95736733D01*
X168064790Y-95618808D01*
X168010061Y-95543479D01*
X167926895Y-95429010D01*
X167926891Y-95429005D01*
X167760994Y-95263108D01*
X167760989Y-95263104D01*
X167571195Y-95125212D01*
X167571194Y-95125211D01*
X167571192Y-95125210D01*
X167416129Y-95046201D01*
X167362150Y-95018697D01*
X167139027Y-94946201D01*
X167023165Y-94927850D01*
X166907305Y-94909500D01*
X164692695Y-94909500D01*
X164615454Y-94921733D01*
X164460972Y-94946201D01*
X164237849Y-95018697D01*
X164028804Y-95125212D01*
X163839010Y-95263104D01*
X163839005Y-95263108D01*
X163673108Y-95429005D01*
X163673104Y-95429010D01*
X163535212Y-95618804D01*
X163428697Y-95827849D01*
X163356201Y-96050972D01*
X163335058Y-96184464D01*
X163319500Y-96282695D01*
X144760083Y-96282695D01*
X144633501Y-96230264D01*
X144633489Y-96230261D01*
X144478845Y-96199500D01*
X144478842Y-96199500D01*
X144321158Y-96199500D01*
X144321155Y-96199500D01*
X144166510Y-96230261D01*
X144166498Y-96230264D01*
X144020827Y-96290602D01*
X144020814Y-96290609D01*
X143889711Y-96378210D01*
X143889707Y-96378213D01*
X143778213Y-96489707D01*
X143778210Y-96489711D01*
X143690609Y-96620814D01*
X143690602Y-96620827D01*
X143630264Y-96766498D01*
X143630261Y-96766510D01*
X143599500Y-96921153D01*
X143599500Y-97078846D01*
X143630261Y-97233489D01*
X143630264Y-97233501D01*
X143690603Y-97379174D01*
X143693475Y-97384546D01*
X143691317Y-97385699D01*
X143708980Y-97442108D01*
X143709000Y-97444322D01*
X143709000Y-100779112D01*
X143689315Y-100846151D01*
X143636511Y-100891906D01*
X143567353Y-100901850D01*
X143516717Y-100879554D01*
X143515354Y-100881595D01*
X143379185Y-100790609D01*
X143379172Y-100790602D01*
X143233501Y-100730264D01*
X143233489Y-100730261D01*
X143078845Y-100699500D01*
X143078842Y-100699500D01*
X142921158Y-100699500D01*
X142921155Y-100699500D01*
X142766510Y-100730261D01*
X142766498Y-100730264D01*
X142620827Y-100790602D01*
X142620814Y-100790609D01*
X142489711Y-100878210D01*
X142489707Y-100878213D01*
X142378215Y-100989705D01*
X142378211Y-100989710D01*
X142368738Y-101003889D01*
X142315127Y-101048695D01*
X142265635Y-101059000D01*
X139694323Y-101059000D01*
X139635490Y-101041724D01*
X139634553Y-101043479D01*
X139629181Y-101040607D01*
X139629179Y-101040606D01*
X139629176Y-101040605D01*
X139629171Y-101040602D01*
X139483501Y-100980264D01*
X139483489Y-100980261D01*
X139328845Y-100949500D01*
X139328842Y-100949500D01*
X139171158Y-100949500D01*
X139171155Y-100949500D01*
X139016510Y-100980261D01*
X139016498Y-100980264D01*
X138870827Y-101040602D01*
X138870814Y-101040609D01*
X138739711Y-101128210D01*
X138739707Y-101128213D01*
X138628213Y-101239707D01*
X138628210Y-101239711D01*
X138540609Y-101370814D01*
X138540602Y-101370827D01*
X138480264Y-101516498D01*
X138480261Y-101516510D01*
X138449500Y-101671153D01*
X138449500Y-101828846D01*
X138480261Y-101983489D01*
X138480264Y-101983501D01*
X138542937Y-102134808D01*
X138541082Y-102135575D01*
X138553439Y-102194969D01*
X138528428Y-102260209D01*
X138472116Y-102301571D01*
X138429840Y-102309000D01*
X134444323Y-102309000D01*
X134385490Y-102291724D01*
X134384553Y-102293479D01*
X134379181Y-102290607D01*
X134379179Y-102290606D01*
X134379176Y-102290605D01*
X134379171Y-102290602D01*
X134233501Y-102230264D01*
X134233489Y-102230261D01*
X134078845Y-102199500D01*
X134078842Y-102199500D01*
X133921158Y-102199500D01*
X133921155Y-102199500D01*
X133766510Y-102230261D01*
X133766498Y-102230264D01*
X133620827Y-102290602D01*
X133620814Y-102290609D01*
X133489711Y-102378210D01*
X133489707Y-102378213D01*
X133378213Y-102489707D01*
X133378210Y-102489711D01*
X133290609Y-102620814D01*
X133290602Y-102620827D01*
X133230264Y-102766498D01*
X133230261Y-102766510D01*
X133199500Y-102921153D01*
X125898375Y-102921153D01*
X125802793Y-102825571D01*
X125773403Y-102771748D01*
X125771503Y-102772325D01*
X125769737Y-102766503D01*
X125709395Y-102620823D01*
X125709390Y-102620814D01*
X125621789Y-102489711D01*
X125621786Y-102489707D01*
X125510292Y-102378213D01*
X125510288Y-102378210D01*
X125379185Y-102290609D01*
X125379172Y-102290602D01*
X125233501Y-102230264D01*
X125233489Y-102230261D01*
X125078845Y-102199500D01*
X125078842Y-102199500D01*
X124921158Y-102199500D01*
X124921155Y-102199500D01*
X124766510Y-102230261D01*
X124766498Y-102230264D01*
X124620827Y-102290602D01*
X124620814Y-102290609D01*
X124489711Y-102378210D01*
X124489707Y-102378213D01*
X124378213Y-102489707D01*
X124378210Y-102489711D01*
X124290609Y-102620814D01*
X124290602Y-102620827D01*
X124230264Y-102766498D01*
X124230261Y-102766510D01*
X124199500Y-102921153D01*
X117400499Y-102921153D01*
X117394402Y-102890500D01*
X117369737Y-102766503D01*
X117355581Y-102732328D01*
X117309397Y-102620828D01*
X117309396Y-102620827D01*
X117309394Y-102620821D01*
X117309390Y-102620815D01*
X117306521Y-102615447D01*
X117308676Y-102614294D01*
X117291019Y-102557869D01*
X117291000Y-102555677D01*
X117291000Y-99137583D01*
X117310685Y-99070544D01*
X117327315Y-99049906D01*
X117974429Y-98402791D01*
X118014655Y-98375914D01*
X118025938Y-98371240D01*
X118033497Y-98369737D01*
X118179179Y-98309394D01*
X118185584Y-98305113D01*
X118196871Y-98300439D01*
X118219962Y-98297956D01*
X118242131Y-98291019D01*
X118244323Y-98291000D01*
X118268060Y-98291000D01*
X118357870Y-98273134D01*
X118401557Y-98264445D01*
X118527311Y-98212356D01*
X118640487Y-98136735D01*
X119536735Y-97240486D01*
X119612356Y-97127311D01*
X119664445Y-97001557D01*
X119666795Y-96989744D01*
X119667206Y-96987681D01*
X119691000Y-96868060D01*
X119691000Y-92120887D01*
X119710685Y-92053848D01*
X119763489Y-92008093D01*
X119832647Y-91998149D01*
X119883270Y-92020463D01*
X119884646Y-92018405D01*
X120020814Y-92109390D01*
X120020827Y-92109397D01*
X120166498Y-92169735D01*
X120166503Y-92169737D01*
X120321153Y-92200499D01*
X120321156Y-92200500D01*
X120321158Y-92200500D01*
X120478844Y-92200500D01*
X120478845Y-92200499D01*
X120633497Y-92169737D01*
X120779179Y-92109394D01*
X120910289Y-92021789D01*
X121021789Y-91910289D01*
X121109394Y-91779179D01*
X121169737Y-91633497D01*
X121200500Y-91478842D01*
X121200500Y-91321158D01*
X121200500Y-91321155D01*
X121200499Y-91321153D01*
X121180734Y-91221789D01*
X121169737Y-91166503D01*
X121109394Y-91020821D01*
X121109390Y-91020815D01*
X121106521Y-91015447D01*
X121108676Y-91014294D01*
X121106241Y-91006512D01*
X121096023Y-90990612D01*
X121091566Y-90959619D01*
X121091019Y-90957869D01*
X121091000Y-90955677D01*
X121091000Y-90841199D01*
X121110685Y-90774160D01*
X121163489Y-90728405D01*
X121232647Y-90718461D01*
X121262450Y-90726637D01*
X121366503Y-90769737D01*
X121521153Y-90800499D01*
X121521156Y-90800500D01*
X121521158Y-90800500D01*
X121678844Y-90800500D01*
X121678845Y-90800499D01*
X121833497Y-90769737D01*
X121979179Y-90709394D01*
X122110289Y-90621789D01*
X122221789Y-90510289D01*
X122309394Y-90379179D01*
X122369737Y-90233497D01*
X122369738Y-90233489D01*
X122371505Y-90227668D01*
X122373857Y-90228381D01*
X122377618Y-90221184D01*
X122381644Y-90202679D01*
X122400330Y-90177717D01*
X122401205Y-90176045D01*
X122402796Y-90174425D01*
X122449906Y-90127317D01*
X122511229Y-90093833D01*
X122537585Y-90091000D01*
X143008932Y-90091000D01*
X143075971Y-90110685D01*
X143121726Y-90163489D01*
X143131670Y-90232647D01*
X143102645Y-90296203D01*
X143096613Y-90302681D01*
X142876613Y-90522681D01*
X142815290Y-90556166D01*
X142788932Y-90559000D01*
X140694323Y-90559000D01*
X140635490Y-90541724D01*
X140634553Y-90543479D01*
X140629181Y-90540607D01*
X140629179Y-90540606D01*
X140629176Y-90540605D01*
X140629171Y-90540602D01*
X140483501Y-90480264D01*
X140483489Y-90480261D01*
X140328845Y-90449500D01*
X140328842Y-90449500D01*
X140171158Y-90449500D01*
X140171155Y-90449500D01*
X140016510Y-90480261D01*
X140016498Y-90480264D01*
X139870827Y-90540602D01*
X139870814Y-90540609D01*
X139739711Y-90628210D01*
X139739707Y-90628213D01*
X139628213Y-90739707D01*
X139628210Y-90739711D01*
X139540609Y-90870814D01*
X139540602Y-90870827D01*
X139480264Y-91016498D01*
X139480261Y-91016510D01*
X139449500Y-91171153D01*
X139449500Y-91328846D01*
X139455858Y-91360809D01*
X139449631Y-91430400D01*
X139406768Y-91485578D01*
X139340878Y-91508822D01*
X139334241Y-91509000D01*
X134444323Y-91509000D01*
X134385490Y-91491724D01*
X134384553Y-91493479D01*
X134379181Y-91490607D01*
X134379179Y-91490606D01*
X134379176Y-91490605D01*
X134379171Y-91490602D01*
X134233501Y-91430264D01*
X134233489Y-91430261D01*
X134078845Y-91399500D01*
X134078842Y-91399500D01*
X133921158Y-91399500D01*
X133921155Y-91399500D01*
X133766510Y-91430261D01*
X133766498Y-91430264D01*
X133620827Y-91490602D01*
X133620814Y-91490609D01*
X133489711Y-91578210D01*
X133489707Y-91578213D01*
X133378213Y-91689707D01*
X133378210Y-91689711D01*
X133290609Y-91820814D01*
X133290602Y-91820827D01*
X133230264Y-91966498D01*
X133230261Y-91966510D01*
X133199500Y-92121153D01*
X133199500Y-92278846D01*
X133230261Y-92433489D01*
X133230264Y-92433501D01*
X133290602Y-92579172D01*
X133290609Y-92579185D01*
X133378210Y-92710288D01*
X133378213Y-92710292D01*
X133489707Y-92821786D01*
X133489711Y-92821789D01*
X133620814Y-92909390D01*
X133620827Y-92909397D01*
X133751419Y-92963489D01*
X133766503Y-92969737D01*
X133921153Y-93000499D01*
X133921156Y-93000500D01*
X133921158Y-93000500D01*
X134078844Y-93000500D01*
X134078845Y-93000499D01*
X134233497Y-92969737D01*
X134379179Y-92909394D01*
X134379188Y-92909387D01*
X134384553Y-92906521D01*
X134385705Y-92908676D01*
X134442131Y-92891019D01*
X134444323Y-92891000D01*
X145332416Y-92891000D01*
X145399455Y-92910685D01*
X145445210Y-92963489D01*
X145455154Y-93032647D01*
X145426129Y-93096203D01*
X145420097Y-93102681D01*
X144050097Y-94472681D01*
X143988774Y-94506166D01*
X143962416Y-94509000D01*
X128444323Y-94509000D01*
X128385490Y-94491724D01*
X128384553Y-94493479D01*
X128379181Y-94490607D01*
X128379179Y-94490606D01*
X128379176Y-94490605D01*
X128379171Y-94490602D01*
X128233501Y-94430264D01*
X128233489Y-94430261D01*
X128078845Y-94399500D01*
X128078842Y-94399500D01*
X127921158Y-94399500D01*
X127921155Y-94399500D01*
X127766510Y-94430261D01*
X127766498Y-94430264D01*
X127620827Y-94490602D01*
X127620814Y-94490609D01*
X127489711Y-94578210D01*
X127489707Y-94578213D01*
X127378213Y-94689707D01*
X127378210Y-94689711D01*
X127290609Y-94820814D01*
X127290602Y-94820827D01*
X127230264Y-94966498D01*
X127230261Y-94966510D01*
X127199500Y-95121153D01*
X127199500Y-95278846D01*
X127230261Y-95433489D01*
X127230264Y-95433501D01*
X127290602Y-95579172D01*
X127290609Y-95579185D01*
X127378210Y-95710288D01*
X127378213Y-95710292D01*
X127489707Y-95821786D01*
X127489711Y-95821789D01*
X127620814Y-95909390D01*
X127620827Y-95909397D01*
X127751419Y-95963489D01*
X127766503Y-95969737D01*
X127916131Y-95999500D01*
X127921153Y-96000499D01*
X127921156Y-96000500D01*
X127921158Y-96000500D01*
X128078844Y-96000500D01*
X128078845Y-96000499D01*
X128233497Y-95969737D01*
X128379179Y-95909394D01*
X128379188Y-95909387D01*
X128384553Y-95906521D01*
X128385705Y-95908676D01*
X128442131Y-95891019D01*
X128444323Y-95891000D01*
X131510779Y-95891000D01*
X131577818Y-95910685D01*
X131623573Y-95963489D01*
X131633517Y-96032647D01*
X131604492Y-96096203D01*
X131579670Y-96118102D01*
X131489711Y-96178210D01*
X131489707Y-96178213D01*
X131378213Y-96289707D01*
X131378210Y-96289711D01*
X131290609Y-96420814D01*
X131290602Y-96420827D01*
X131230263Y-96566500D01*
X131228495Y-96572331D01*
X131226161Y-96571623D01*
X131198720Y-96624029D01*
X131197206Y-96625570D01*
X130750097Y-97072681D01*
X130688774Y-97106166D01*
X130662416Y-97109000D01*
X127444323Y-97109000D01*
X127385490Y-97091724D01*
X127384553Y-97093479D01*
X127379181Y-97090607D01*
X127379179Y-97090606D01*
X127379176Y-97090605D01*
X127379171Y-97090602D01*
X127233501Y-97030264D01*
X127233489Y-97030261D01*
X127078845Y-96999500D01*
X127078842Y-96999500D01*
X126921158Y-96999500D01*
X126921155Y-96999500D01*
X126766510Y-97030261D01*
X126766498Y-97030264D01*
X126620827Y-97090602D01*
X126620814Y-97090609D01*
X126489711Y-97178210D01*
X126489707Y-97178213D01*
X126378213Y-97289707D01*
X126378210Y-97289711D01*
X126290609Y-97420814D01*
X126290602Y-97420827D01*
X126230264Y-97566498D01*
X126230261Y-97566510D01*
X126199500Y-97721153D01*
X126199500Y-97878846D01*
X126230261Y-98033489D01*
X126230264Y-98033501D01*
X126290602Y-98179172D01*
X126290609Y-98179185D01*
X126378210Y-98310288D01*
X126378213Y-98310292D01*
X126489707Y-98421786D01*
X126489711Y-98421789D01*
X126620814Y-98509390D01*
X126620827Y-98509397D01*
X126766498Y-98569735D01*
X126766503Y-98569737D01*
X126910792Y-98598438D01*
X126921153Y-98600499D01*
X126921156Y-98600500D01*
X126921158Y-98600500D01*
X127078844Y-98600500D01*
X127078845Y-98600499D01*
X127233497Y-98569737D01*
X127379179Y-98509394D01*
X127379188Y-98509387D01*
X127384553Y-98506521D01*
X127385705Y-98508676D01*
X127442131Y-98491019D01*
X127444323Y-98491000D01*
X131068060Y-98491000D01*
X131160147Y-98472682D01*
X131201557Y-98464445D01*
X131327311Y-98412356D01*
X131381026Y-98376465D01*
X131440487Y-98336735D01*
X132174428Y-97602792D01*
X132228239Y-97573409D01*
X132227662Y-97571507D01*
X132233490Y-97569738D01*
X132233497Y-97569737D01*
X132379179Y-97509394D01*
X132510289Y-97421789D01*
X132621789Y-97310289D01*
X132709394Y-97179179D01*
X132769737Y-97033497D01*
X132800500Y-96878842D01*
X132800500Y-96721158D01*
X132800500Y-96721155D01*
X132800499Y-96721153D01*
X132782204Y-96629179D01*
X132769737Y-96566503D01*
X132737929Y-96489711D01*
X132709397Y-96420827D01*
X132709390Y-96420814D01*
X132621789Y-96289711D01*
X132621786Y-96289707D01*
X132510292Y-96178213D01*
X132510288Y-96178210D01*
X132420330Y-96118102D01*
X132375525Y-96064490D01*
X132366818Y-95995165D01*
X132396972Y-95932138D01*
X132456415Y-95895418D01*
X132489221Y-95891000D01*
X144368060Y-95891000D01*
X144469538Y-95870814D01*
X144501557Y-95864445D01*
X144627311Y-95812356D01*
X144681026Y-95776465D01*
X144740487Y-95736735D01*
X157606735Y-82870487D01*
X157682356Y-82757311D01*
X157734445Y-82631557D01*
X157761000Y-82498058D01*
X157761000Y-76378711D01*
X166649500Y-76378711D01*
X166649500Y-76621288D01*
X166681161Y-76861785D01*
X166743947Y-77096104D01*
X166836773Y-77320205D01*
X166836776Y-77320212D01*
X166958064Y-77530289D01*
X166958066Y-77530292D01*
X166958067Y-77530293D01*
X167105733Y-77722736D01*
X167105739Y-77722743D01*
X167277256Y-77894260D01*
X167277262Y-77894265D01*
X167469711Y-78041936D01*
X167679788Y-78163224D01*
X167903900Y-78256054D01*
X168138211Y-78318838D01*
X168318586Y-78342584D01*
X168378711Y-78350500D01*
X168378712Y-78350500D01*
X168621289Y-78350500D01*
X168669388Y-78344167D01*
X168861789Y-78318838D01*
X169096100Y-78256054D01*
X169320212Y-78163224D01*
X169530289Y-78041936D01*
X169722738Y-77894265D01*
X169894265Y-77722738D01*
X170041936Y-77530289D01*
X170163224Y-77320212D01*
X170256054Y-77096100D01*
X170318838Y-76861789D01*
X170350500Y-76621288D01*
X170350500Y-76378712D01*
X170349253Y-76369243D01*
X170318838Y-76138214D01*
X170318838Y-76138211D01*
X170256054Y-75903900D01*
X170163224Y-75679788D01*
X170041936Y-75469711D01*
X169894265Y-75277262D01*
X169894260Y-75277256D01*
X169722743Y-75105739D01*
X169722736Y-75105733D01*
X169530293Y-74958067D01*
X169530292Y-74958066D01*
X169530289Y-74958064D01*
X169320212Y-74836776D01*
X169320205Y-74836773D01*
X169096104Y-74743947D01*
X168861785Y-74681161D01*
X168621289Y-74649500D01*
X168621288Y-74649500D01*
X168378712Y-74649500D01*
X168378711Y-74649500D01*
X168138214Y-74681161D01*
X167903895Y-74743947D01*
X167679794Y-74836773D01*
X167679785Y-74836777D01*
X167469706Y-74958067D01*
X167277263Y-75105733D01*
X167277256Y-75105739D01*
X167105739Y-75277256D01*
X167105733Y-75277263D01*
X166958067Y-75469706D01*
X166836777Y-75679785D01*
X166836773Y-75679794D01*
X166743947Y-75903895D01*
X166681161Y-76138214D01*
X166649500Y-76378711D01*
X157761000Y-76378711D01*
X157761000Y-75447260D01*
X157780685Y-75380221D01*
X157812111Y-75346944D01*
X157958651Y-75240477D01*
X158110477Y-75088651D01*
X158236683Y-74914944D01*
X158236683Y-74914943D01*
X158239547Y-74911002D01*
X158241478Y-74912405D01*
X158285927Y-74872078D01*
X158354840Y-74860558D01*
X158419042Y-74888125D01*
X158439478Y-74911709D01*
X158440453Y-74911002D01*
X158443316Y-74914943D01*
X158443317Y-74914944D01*
X158569523Y-75088651D01*
X158721349Y-75240477D01*
X158895056Y-75366683D01*
X158921626Y-75380221D01*
X159086366Y-75464161D01*
X159086369Y-75464162D01*
X159188470Y-75497336D01*
X159290573Y-75530511D01*
X159502643Y-75564100D01*
X159502644Y-75564100D01*
X159717356Y-75564100D01*
X159717357Y-75564100D01*
X159929427Y-75530511D01*
X160133633Y-75464161D01*
X160324944Y-75366683D01*
X160498651Y-75240477D01*
X160650477Y-75088651D01*
X160776683Y-74914944D01*
X160776683Y-74914943D01*
X160779547Y-74911002D01*
X160781478Y-74912405D01*
X160825927Y-74872078D01*
X160894840Y-74860558D01*
X160959042Y-74888125D01*
X160979478Y-74911709D01*
X160980453Y-74911002D01*
X160983316Y-74914943D01*
X160983317Y-74914944D01*
X161109523Y-75088651D01*
X161261349Y-75240477D01*
X161435056Y-75366683D01*
X161461626Y-75380221D01*
X161626366Y-75464161D01*
X161626369Y-75464162D01*
X161728470Y-75497336D01*
X161830573Y-75530511D01*
X162042643Y-75564100D01*
X162042644Y-75564100D01*
X162257356Y-75564100D01*
X162257357Y-75564100D01*
X162469427Y-75530511D01*
X162673633Y-75464161D01*
X162864944Y-75366683D01*
X163038651Y-75240477D01*
X163190477Y-75088651D01*
X163316683Y-74914944D01*
X163414161Y-74723633D01*
X163480511Y-74519427D01*
X163514100Y-74307357D01*
X163514100Y-74092643D01*
X163480511Y-73880573D01*
X163420000Y-73694337D01*
X163414162Y-73676369D01*
X163414161Y-73676366D01*
X163330266Y-73511715D01*
X163316683Y-73485056D01*
X163190477Y-73311349D01*
X163038651Y-73159523D01*
X162864944Y-73033317D01*
X162673633Y-72935838D01*
X162673630Y-72935837D01*
X162469428Y-72869489D01*
X162363392Y-72852694D01*
X162257357Y-72835900D01*
X162042643Y-72835900D01*
X161971953Y-72847096D01*
X161830571Y-72869489D01*
X161626369Y-72935837D01*
X161626366Y-72935838D01*
X161435055Y-73033317D01*
X161402675Y-73056843D01*
X161261349Y-73159523D01*
X161261347Y-73159525D01*
X161261346Y-73159525D01*
X161109525Y-73311346D01*
X161109525Y-73311347D01*
X161109523Y-73311349D01*
X160997918Y-73464959D01*
X160980453Y-73488998D01*
X160978562Y-73487624D01*
X160933848Y-73528030D01*
X160864911Y-73539411D01*
X160800765Y-73511715D01*
X160780488Y-73488314D01*
X160779547Y-73488998D01*
X160762082Y-73464960D01*
X160650477Y-73311349D01*
X160498651Y-73159523D01*
X160324944Y-73033317D01*
X160133633Y-72935838D01*
X160133630Y-72935837D01*
X159929428Y-72869489D01*
X159823392Y-72852694D01*
X159717357Y-72835900D01*
X159502643Y-72835900D01*
X159431953Y-72847096D01*
X159290571Y-72869489D01*
X159086369Y-72935837D01*
X159086366Y-72935838D01*
X158895055Y-73033317D01*
X158862675Y-73056843D01*
X158721349Y-73159523D01*
X158721347Y-73159525D01*
X158721346Y-73159525D01*
X158569525Y-73311346D01*
X158569525Y-73311347D01*
X158569523Y-73311349D01*
X158457918Y-73464959D01*
X158440453Y-73488998D01*
X158438562Y-73487624D01*
X158393848Y-73528030D01*
X158324911Y-73539411D01*
X158260765Y-73511715D01*
X158240488Y-73488314D01*
X158239547Y-73488998D01*
X158222082Y-73464960D01*
X158110477Y-73311349D01*
X157958651Y-73159523D01*
X157784944Y-73033317D01*
X157593633Y-72935838D01*
X157593630Y-72935837D01*
X157389428Y-72869489D01*
X157283392Y-72852694D01*
X157177357Y-72835900D01*
X156962643Y-72835900D01*
X156891953Y-72847096D01*
X156750571Y-72869489D01*
X156546369Y-72935837D01*
X156546366Y-72935838D01*
X156355055Y-73033317D01*
X156322675Y-73056843D01*
X156181349Y-73159523D01*
X156181347Y-73159525D01*
X156181346Y-73159525D01*
X156029525Y-73311346D01*
X156029525Y-73311347D01*
X156029523Y-73311349D01*
X155917918Y-73464959D01*
X155900453Y-73488998D01*
X155898562Y-73487624D01*
X155853848Y-73528030D01*
X155784911Y-73539411D01*
X155720765Y-73511715D01*
X155700488Y-73488314D01*
X155699547Y-73488998D01*
X155682082Y-73464960D01*
X155570477Y-73311349D01*
X155418651Y-73159523D01*
X155244944Y-73033317D01*
X155053633Y-72935838D01*
X155053630Y-72935837D01*
X154849428Y-72869489D01*
X154743392Y-72852694D01*
X154637357Y-72835900D01*
X154422643Y-72835900D01*
X154351953Y-72847096D01*
X154210571Y-72869489D01*
X154006369Y-72935837D01*
X154006366Y-72935838D01*
X153815055Y-73033317D01*
X153782675Y-73056843D01*
X153641349Y-73159523D01*
X153641347Y-73159525D01*
X153641346Y-73159525D01*
X153489525Y-73311346D01*
X153489525Y-73311347D01*
X153489523Y-73311349D01*
X153377918Y-73464959D01*
X153360453Y-73488998D01*
X153358562Y-73487624D01*
X153313848Y-73528030D01*
X153244911Y-73539411D01*
X153180765Y-73511715D01*
X153160488Y-73488314D01*
X153159547Y-73488998D01*
X153142082Y-73464960D01*
X153030477Y-73311349D01*
X152878651Y-73159523D01*
X152704944Y-73033317D01*
X152513633Y-72935838D01*
X152513630Y-72935837D01*
X152309428Y-72869489D01*
X152203392Y-72852694D01*
X152097357Y-72835900D01*
X151882643Y-72835900D01*
X151811953Y-72847096D01*
X151670571Y-72869489D01*
X151466369Y-72935837D01*
X151466366Y-72935838D01*
X151275055Y-73033317D01*
X151242675Y-73056843D01*
X151101349Y-73159523D01*
X151101347Y-73159525D01*
X151101346Y-73159525D01*
X150949525Y-73311346D01*
X150949525Y-73311347D01*
X150949523Y-73311349D01*
X150837918Y-73464959D01*
X150820453Y-73488998D01*
X150818562Y-73487624D01*
X150773848Y-73528030D01*
X150704911Y-73539411D01*
X150640765Y-73511715D01*
X150620488Y-73488314D01*
X150619547Y-73488998D01*
X150602082Y-73464960D01*
X150490477Y-73311349D01*
X150338651Y-73159523D01*
X150164944Y-73033317D01*
X149973633Y-72935838D01*
X149973630Y-72935837D01*
X149769428Y-72869489D01*
X149663392Y-72852694D01*
X149557357Y-72835900D01*
X149342643Y-72835900D01*
X149271953Y-72847096D01*
X149130571Y-72869489D01*
X148926369Y-72935837D01*
X148926366Y-72935838D01*
X148735055Y-73033317D01*
X148702675Y-73056843D01*
X148561349Y-73159523D01*
X148561347Y-73159525D01*
X148561346Y-73159525D01*
X148409525Y-73311346D01*
X148409525Y-73311347D01*
X148409523Y-73311349D01*
X148297918Y-73464959D01*
X148280453Y-73488998D01*
X148278562Y-73487624D01*
X148233848Y-73528030D01*
X148164911Y-73539411D01*
X148100765Y-73511715D01*
X148080488Y-73488314D01*
X148079547Y-73488998D01*
X148062082Y-73464960D01*
X147950477Y-73311349D01*
X147798651Y-73159523D01*
X147624944Y-73033317D01*
X147433633Y-72935838D01*
X147433630Y-72935837D01*
X147229428Y-72869489D01*
X147123392Y-72852694D01*
X147017357Y-72835900D01*
X146802643Y-72835900D01*
X146731953Y-72847096D01*
X146590571Y-72869489D01*
X146386369Y-72935837D01*
X146386366Y-72935838D01*
X146195055Y-73033317D01*
X146162675Y-73056843D01*
X146021349Y-73159523D01*
X146021347Y-73159525D01*
X146021346Y-73159525D01*
X145869525Y-73311346D01*
X145869525Y-73311347D01*
X145869523Y-73311349D01*
X145757918Y-73464959D01*
X145740453Y-73488998D01*
X145738562Y-73487624D01*
X145693848Y-73528030D01*
X145624911Y-73539411D01*
X145560765Y-73511715D01*
X145540488Y-73488314D01*
X145539547Y-73488998D01*
X145522082Y-73464960D01*
X145410477Y-73311349D01*
X145258651Y-73159523D01*
X145084944Y-73033317D01*
X144893633Y-72935838D01*
X144893630Y-72935837D01*
X144689428Y-72869489D01*
X144583392Y-72852694D01*
X144477357Y-72835900D01*
X144262643Y-72835900D01*
X144191953Y-72847096D01*
X144050571Y-72869489D01*
X143846369Y-72935837D01*
X143846366Y-72935838D01*
X143655055Y-73033317D01*
X143622675Y-73056843D01*
X143481349Y-73159523D01*
X143481347Y-73159525D01*
X143481346Y-73159525D01*
X143329525Y-73311346D01*
X143329525Y-73311347D01*
X143329523Y-73311349D01*
X143275322Y-73385949D01*
X143203317Y-73485055D01*
X143105838Y-73676366D01*
X143105837Y-73676369D01*
X143039489Y-73880571D01*
X143005900Y-74092643D01*
X143005900Y-74307356D01*
X143039489Y-74519428D01*
X143105837Y-74723630D01*
X143105838Y-74723633D01*
X143189652Y-74888125D01*
X143203317Y-74914944D01*
X143329523Y-75088651D01*
X143481349Y-75240477D01*
X143627887Y-75346943D01*
X143670551Y-75402272D01*
X143679000Y-75447260D01*
X143679000Y-85092416D01*
X143659315Y-85159455D01*
X143642681Y-85180097D01*
X142750097Y-86072681D01*
X142688774Y-86106166D01*
X142662416Y-86109000D01*
X119931940Y-86109000D01*
X119871615Y-86121000D01*
X119871614Y-86121000D01*
X119798450Y-86135553D01*
X119798438Y-86135556D01*
X119672695Y-86187640D01*
X119672682Y-86187647D01*
X119559514Y-86263264D01*
X119559510Y-86263267D01*
X118463269Y-87359507D01*
X118463266Y-87359510D01*
X118427956Y-87412355D01*
X118427957Y-87412356D01*
X118387641Y-87472692D01*
X118335556Y-87598438D01*
X118335553Y-87598448D01*
X118309000Y-87731939D01*
X118309000Y-95358800D01*
X118299946Y-95389631D01*
X118292353Y-95420858D01*
X118290165Y-95422941D01*
X118289315Y-95425839D01*
X118265030Y-95446881D01*
X118241760Y-95469046D01*
X118238793Y-95469616D01*
X118236511Y-95471594D01*
X118204701Y-95476167D01*
X118173146Y-95482232D01*
X118169260Y-95481263D01*
X118167353Y-95481538D01*
X118138851Y-95473893D01*
X118138192Y-95473628D01*
X118033497Y-95430263D01*
X118026636Y-95428898D01*
X118015959Y-95424617D01*
X117997158Y-95409815D01*
X117975968Y-95398719D01*
X117974427Y-95397205D01*
X117327319Y-94750097D01*
X117293834Y-94688774D01*
X117291000Y-94662416D01*
X117291000Y-92244322D01*
X117308277Y-92185482D01*
X117306525Y-92184546D01*
X117309390Y-92179184D01*
X117309394Y-92179179D01*
X117369737Y-92033497D01*
X117400500Y-91878842D01*
X117400500Y-91721158D01*
X117400500Y-91721155D01*
X117400499Y-91721153D01*
X117372066Y-91578211D01*
X117369737Y-91566503D01*
X117345845Y-91508822D01*
X117309397Y-91420827D01*
X117309390Y-91420814D01*
X117221789Y-91289711D01*
X117221786Y-91289707D01*
X117110292Y-91178213D01*
X117110288Y-91178210D01*
X116979185Y-91090609D01*
X116979172Y-91090602D01*
X116833501Y-91030264D01*
X116833489Y-91030261D01*
X116678845Y-90999500D01*
X116678842Y-90999500D01*
X116521158Y-90999500D01*
X116521155Y-90999500D01*
X116366510Y-91030261D01*
X116366498Y-91030264D01*
X116220827Y-91090602D01*
X116220814Y-91090609D01*
X116089711Y-91178210D01*
X116089707Y-91178213D01*
X115978213Y-91289707D01*
X115978210Y-91289711D01*
X115890609Y-91420814D01*
X115890602Y-91420827D01*
X115830264Y-91566498D01*
X115830261Y-91566510D01*
X115799500Y-91721153D01*
X74000500Y-91721153D01*
X74000500Y-78521153D01*
X92199500Y-78521153D01*
X92199500Y-78678846D01*
X92230261Y-78833489D01*
X92230264Y-78833501D01*
X92290602Y-78979172D01*
X92290609Y-78979185D01*
X92378210Y-79110288D01*
X92378213Y-79110292D01*
X92489707Y-79221786D01*
X92489711Y-79221789D01*
X92620814Y-79309390D01*
X92620820Y-79309393D01*
X92620821Y-79309394D01*
X92766503Y-79369737D01*
X92766507Y-79369737D01*
X92772332Y-79371505D01*
X92771618Y-79373857D01*
X92823955Y-79401205D01*
X92825573Y-79402794D01*
X93872681Y-80449902D01*
X93906166Y-80511225D01*
X93909000Y-80537583D01*
X93909000Y-86731942D01*
X93909000Y-88131943D01*
X93909000Y-88268057D01*
X93909000Y-88268059D01*
X93908999Y-88268059D01*
X93935553Y-88401551D01*
X93935556Y-88401561D01*
X93987642Y-88527309D01*
X93987644Y-88527312D01*
X94063263Y-88640485D01*
X94063269Y-88640492D01*
X96258924Y-90836145D01*
X96258945Y-90836168D01*
X96759509Y-91336732D01*
X96759513Y-91336735D01*
X96872681Y-91412352D01*
X96872685Y-91412354D01*
X96872688Y-91412356D01*
X96998442Y-91464445D01*
X97017439Y-91468223D01*
X97070822Y-91478842D01*
X97131941Y-91491000D01*
X97131942Y-91491000D01*
X104555677Y-91491000D01*
X104614509Y-91508275D01*
X104615447Y-91506521D01*
X104620815Y-91509390D01*
X104620821Y-91509394D01*
X104766503Y-91569737D01*
X104921153Y-91600499D01*
X104921156Y-91600500D01*
X104921158Y-91600500D01*
X105078844Y-91600500D01*
X105078845Y-91600499D01*
X105089179Y-91598443D01*
X105114287Y-91593450D01*
X105114292Y-91593449D01*
X105199800Y-91576439D01*
X105233497Y-91569737D01*
X105379179Y-91509394D01*
X105510289Y-91421789D01*
X105621789Y-91310289D01*
X105709394Y-91179179D01*
X105712719Y-91171153D01*
X105743390Y-91097104D01*
X105769737Y-91033497D01*
X105800500Y-90878842D01*
X105800500Y-90721158D01*
X105800500Y-90721155D01*
X105800499Y-90721153D01*
X105782012Y-90628213D01*
X105769737Y-90566503D01*
X105759473Y-90541724D01*
X105709397Y-90420827D01*
X105709390Y-90420814D01*
X105621789Y-90289711D01*
X105621786Y-90289707D01*
X105510292Y-90178213D01*
X105510288Y-90178210D01*
X105379185Y-90090609D01*
X105379172Y-90090602D01*
X105233501Y-90030264D01*
X105233489Y-90030261D01*
X105078845Y-89999500D01*
X105078842Y-89999500D01*
X104921158Y-89999500D01*
X104921155Y-89999500D01*
X104766510Y-90030261D01*
X104766498Y-90030264D01*
X104620828Y-90090602D01*
X104615447Y-90093479D01*
X104614294Y-90091323D01*
X104557869Y-90108981D01*
X104555677Y-90109000D01*
X97537584Y-90109000D01*
X97470545Y-90089315D01*
X97449903Y-90072681D01*
X97236168Y-89858945D01*
X97236145Y-89858924D01*
X95327319Y-87950097D01*
X95293834Y-87888774D01*
X95291000Y-87862416D01*
X95291000Y-80131939D01*
X95264446Y-79998448D01*
X95264445Y-79998447D01*
X95264445Y-79998443D01*
X95264443Y-79998438D01*
X95212359Y-79872695D01*
X95212352Y-79872682D01*
X95136735Y-79759514D01*
X95136734Y-79759513D01*
X95040487Y-79663266D01*
X93802794Y-78425573D01*
X93773407Y-78371755D01*
X93771505Y-78372332D01*
X93769735Y-78366498D01*
X93709395Y-78220823D01*
X93709390Y-78220814D01*
X93621789Y-78089711D01*
X93621786Y-78089707D01*
X93510292Y-77978213D01*
X93510288Y-77978210D01*
X93379185Y-77890609D01*
X93379172Y-77890602D01*
X93233501Y-77830264D01*
X93233489Y-77830261D01*
X93078845Y-77799500D01*
X93078842Y-77799500D01*
X92921158Y-77799500D01*
X92921155Y-77799500D01*
X92766510Y-77830261D01*
X92766498Y-77830264D01*
X92620827Y-77890602D01*
X92620814Y-77890609D01*
X92489711Y-77978210D01*
X92489707Y-77978213D01*
X92378213Y-78089707D01*
X92378210Y-78089711D01*
X92290609Y-78220814D01*
X92290602Y-78220827D01*
X92230264Y-78366498D01*
X92230261Y-78366510D01*
X92199500Y-78521153D01*
X74000500Y-78521153D01*
X74000500Y-76502706D01*
X74000618Y-76497297D01*
X74005796Y-76378711D01*
X76649500Y-76378711D01*
X76649500Y-76621288D01*
X76681161Y-76861785D01*
X76743947Y-77096104D01*
X76836773Y-77320205D01*
X76836776Y-77320212D01*
X76958064Y-77530289D01*
X76958066Y-77530292D01*
X76958067Y-77530293D01*
X77105733Y-77722736D01*
X77105739Y-77722743D01*
X77277256Y-77894260D01*
X77277262Y-77894265D01*
X77469711Y-78041936D01*
X77679788Y-78163224D01*
X77903900Y-78256054D01*
X78138211Y-78318838D01*
X78318586Y-78342584D01*
X78378711Y-78350500D01*
X78378712Y-78350500D01*
X78621289Y-78350500D01*
X78669388Y-78344167D01*
X78861789Y-78318838D01*
X79096100Y-78256054D01*
X79320212Y-78163224D01*
X79530289Y-78041936D01*
X79722738Y-77894265D01*
X79894265Y-77722738D01*
X80041936Y-77530289D01*
X80163224Y-77320212D01*
X80256054Y-77096100D01*
X80289271Y-76972135D01*
X105709500Y-76972135D01*
X105709500Y-81027870D01*
X105709501Y-81027876D01*
X105715908Y-81087483D01*
X105766202Y-81222328D01*
X105766206Y-81222335D01*
X105852452Y-81337544D01*
X105852455Y-81337547D01*
X105967664Y-81423793D01*
X105967671Y-81423797D01*
X106102517Y-81474091D01*
X106102516Y-81474091D01*
X106109444Y-81474835D01*
X106162127Y-81480500D01*
X108237872Y-81480499D01*
X108297483Y-81474091D01*
X108432331Y-81423796D01*
X108547546Y-81337546D01*
X108633796Y-81222331D01*
X108684091Y-81087483D01*
X108690500Y-81027873D01*
X108690499Y-77908469D01*
X110910000Y-77908469D01*
X110910000Y-78650000D01*
X111640088Y-78650000D01*
X111615116Y-78687373D01*
X111565364Y-78807485D01*
X111540000Y-78934996D01*
X111540000Y-79065004D01*
X111565364Y-79192515D01*
X111615116Y-79312627D01*
X111640088Y-79350000D01*
X110910000Y-79350000D01*
X110910000Y-80091530D01*
X110941763Y-80292076D01*
X111004511Y-80485192D01*
X111096695Y-80666110D01*
X111216037Y-80830372D01*
X111216041Y-80830377D01*
X111359622Y-80973958D01*
X111359627Y-80973962D01*
X111523889Y-81093304D01*
X111704811Y-81185490D01*
X111704814Y-81185491D01*
X111849999Y-81232663D01*
X111850000Y-81232663D01*
X111850000Y-79559912D01*
X111887373Y-79584884D01*
X112007485Y-79634636D01*
X112134996Y-79660000D01*
X112265004Y-79660000D01*
X112392515Y-79634636D01*
X112512627Y-79584884D01*
X112550000Y-79559912D01*
X112550000Y-81232663D01*
X112695185Y-81185491D01*
X112695188Y-81185490D01*
X112876110Y-81093304D01*
X113040372Y-80973962D01*
X113040377Y-80973958D01*
X113183958Y-80830377D01*
X113183962Y-80830372D01*
X113303304Y-80666110D01*
X113395488Y-80485192D01*
X113458236Y-80292076D01*
X113490000Y-80091530D01*
X113490000Y-79350000D01*
X112759912Y-79350000D01*
X112784884Y-79312627D01*
X112834636Y-79192515D01*
X112860000Y-79065004D01*
X112860000Y-78934996D01*
X112834636Y-78807485D01*
X112784884Y-78687373D01*
X112759912Y-78650000D01*
X113490000Y-78650000D01*
X113490000Y-77908469D01*
X113458236Y-77707923D01*
X113395488Y-77514807D01*
X113303304Y-77333889D01*
X113183962Y-77169627D01*
X113183958Y-77169622D01*
X113040377Y-77026041D01*
X113040372Y-77026037D01*
X112876110Y-76906695D01*
X112695192Y-76814511D01*
X112550000Y-76767335D01*
X112550000Y-78440087D01*
X112512627Y-78415116D01*
X112392515Y-78365364D01*
X112265004Y-78340000D01*
X112134996Y-78340000D01*
X112007485Y-78365364D01*
X111887373Y-78415116D01*
X111850000Y-78440087D01*
X111850000Y-76767335D01*
X111704807Y-76814511D01*
X111523889Y-76906695D01*
X111359627Y-77026037D01*
X111359622Y-77026041D01*
X111216041Y-77169622D01*
X111216037Y-77169627D01*
X111096695Y-77333889D01*
X111004511Y-77514807D01*
X110941763Y-77707923D01*
X110910000Y-77908469D01*
X108690499Y-77908469D01*
X108690499Y-76972128D01*
X108684091Y-76912517D01*
X108665169Y-76861785D01*
X108633797Y-76777671D01*
X108633793Y-76777664D01*
X108547547Y-76662455D01*
X108547544Y-76662452D01*
X108432335Y-76576206D01*
X108432328Y-76576202D01*
X108297482Y-76525908D01*
X108297483Y-76525908D01*
X108237883Y-76519501D01*
X108237881Y-76519500D01*
X108237873Y-76519500D01*
X108237864Y-76519500D01*
X106162129Y-76519500D01*
X106162123Y-76519501D01*
X106102516Y-76525908D01*
X105967671Y-76576202D01*
X105967664Y-76576206D01*
X105852455Y-76662452D01*
X105852452Y-76662455D01*
X105766206Y-76777664D01*
X105766202Y-76777671D01*
X105715908Y-76912517D01*
X105709501Y-76972116D01*
X105709501Y-76972123D01*
X105709500Y-76972135D01*
X80289271Y-76972135D01*
X80318838Y-76861789D01*
X80350500Y-76621288D01*
X80350500Y-76378712D01*
X80349253Y-76369243D01*
X80318838Y-76138214D01*
X80318838Y-76138211D01*
X80256054Y-75903900D01*
X80163224Y-75679788D01*
X80041936Y-75469711D01*
X79894265Y-75277262D01*
X79894260Y-75277256D01*
X79722743Y-75105739D01*
X79722736Y-75105733D01*
X79530293Y-74958067D01*
X79530292Y-74958066D01*
X79530289Y-74958064D01*
X79320212Y-74836776D01*
X79320205Y-74836773D01*
X79096104Y-74743947D01*
X78861785Y-74681161D01*
X78621289Y-74649500D01*
X78621288Y-74649500D01*
X78378712Y-74649500D01*
X78378711Y-74649500D01*
X78138214Y-74681161D01*
X77903895Y-74743947D01*
X77679794Y-74836773D01*
X77679785Y-74836777D01*
X77469706Y-74958067D01*
X77277263Y-75105733D01*
X77277256Y-75105739D01*
X77105739Y-75277256D01*
X77105733Y-75277263D01*
X76958067Y-75469706D01*
X76836777Y-75679785D01*
X76836773Y-75679794D01*
X76743947Y-75903895D01*
X76681161Y-76138214D01*
X76649500Y-76378711D01*
X74005796Y-76378711D01*
X74006209Y-76369244D01*
X74006209Y-76369243D01*
X74010433Y-76272498D01*
X74017386Y-76113228D01*
X74018326Y-76102495D01*
X74068152Y-75724025D01*
X74070025Y-75713405D01*
X74152649Y-75340709D01*
X74155440Y-75330295D01*
X74270230Y-74966227D01*
X74273917Y-74956095D01*
X74420003Y-74603412D01*
X74424561Y-74593638D01*
X74600822Y-74255045D01*
X74606217Y-74245700D01*
X74703725Y-74092643D01*
X83315900Y-74092643D01*
X83315900Y-74307356D01*
X83349489Y-74519428D01*
X83415837Y-74723630D01*
X83415838Y-74723633D01*
X83499652Y-74888125D01*
X83513317Y-74914944D01*
X83639523Y-75088651D01*
X83791349Y-75240477D01*
X83965056Y-75366683D01*
X83991626Y-75380221D01*
X84156366Y-75464161D01*
X84156369Y-75464162D01*
X84258470Y-75497336D01*
X84360573Y-75530511D01*
X84572643Y-75564100D01*
X84572644Y-75564100D01*
X84787356Y-75564100D01*
X84787357Y-75564100D01*
X84999427Y-75530511D01*
X85203633Y-75464161D01*
X85394944Y-75366683D01*
X85568651Y-75240477D01*
X85720477Y-75088651D01*
X85846683Y-74914944D01*
X85846683Y-74914943D01*
X85849547Y-74911002D01*
X85851478Y-74912405D01*
X85895927Y-74872078D01*
X85964840Y-74860558D01*
X86029042Y-74888125D01*
X86049478Y-74911709D01*
X86050453Y-74911002D01*
X86053316Y-74914943D01*
X86053317Y-74914944D01*
X86179523Y-75088651D01*
X86331349Y-75240477D01*
X86505056Y-75366683D01*
X86531626Y-75380221D01*
X86696366Y-75464161D01*
X86696369Y-75464162D01*
X86798470Y-75497336D01*
X86900573Y-75530511D01*
X87112643Y-75564100D01*
X87112644Y-75564100D01*
X87327356Y-75564100D01*
X87327357Y-75564100D01*
X87539427Y-75530511D01*
X87743633Y-75464161D01*
X87934944Y-75366683D01*
X88108651Y-75240477D01*
X88260477Y-75088651D01*
X88386683Y-74914944D01*
X88386683Y-74914943D01*
X88389547Y-74911002D01*
X88391478Y-74912405D01*
X88435927Y-74872078D01*
X88504840Y-74860558D01*
X88569042Y-74888125D01*
X88589478Y-74911709D01*
X88590453Y-74911002D01*
X88593316Y-74914943D01*
X88593317Y-74914944D01*
X88719523Y-75088651D01*
X88871349Y-75240477D01*
X89045056Y-75366683D01*
X89071626Y-75380221D01*
X89236366Y-75464161D01*
X89236369Y-75464162D01*
X89338470Y-75497336D01*
X89440573Y-75530511D01*
X89652643Y-75564100D01*
X89652644Y-75564100D01*
X89867356Y-75564100D01*
X89867357Y-75564100D01*
X90079427Y-75530511D01*
X90283633Y-75464161D01*
X90474944Y-75366683D01*
X90648651Y-75240477D01*
X90800477Y-75088651D01*
X90926683Y-74914944D01*
X90926683Y-74914943D01*
X90929547Y-74911002D01*
X90931478Y-74912405D01*
X90975927Y-74872078D01*
X91044840Y-74860558D01*
X91109042Y-74888125D01*
X91129478Y-74911709D01*
X91130453Y-74911002D01*
X91133316Y-74914943D01*
X91133317Y-74914944D01*
X91259523Y-75088651D01*
X91411349Y-75240477D01*
X91585056Y-75366683D01*
X91611626Y-75380221D01*
X91776366Y-75464161D01*
X91776369Y-75464162D01*
X91878470Y-75497336D01*
X91980573Y-75530511D01*
X92192643Y-75564100D01*
X92192644Y-75564100D01*
X92407356Y-75564100D01*
X92407357Y-75564100D01*
X92619427Y-75530511D01*
X92823633Y-75464161D01*
X93014944Y-75366683D01*
X93188651Y-75240477D01*
X93340477Y-75088651D01*
X93466683Y-74914944D01*
X93466683Y-74914943D01*
X93469547Y-74911002D01*
X93471478Y-74912405D01*
X93515927Y-74872078D01*
X93584840Y-74860558D01*
X93649042Y-74888125D01*
X93669478Y-74911709D01*
X93670453Y-74911002D01*
X93673316Y-74914943D01*
X93673317Y-74914944D01*
X93799523Y-75088651D01*
X93951349Y-75240477D01*
X94125056Y-75366683D01*
X94151626Y-75380221D01*
X94316366Y-75464161D01*
X94316369Y-75464162D01*
X94418470Y-75497336D01*
X94520573Y-75530511D01*
X94732643Y-75564100D01*
X94732644Y-75564100D01*
X94947356Y-75564100D01*
X94947357Y-75564100D01*
X95159427Y-75530511D01*
X95363633Y-75464161D01*
X95554944Y-75366683D01*
X95728651Y-75240477D01*
X95880477Y-75088651D01*
X96006683Y-74914944D01*
X96104161Y-74723633D01*
X96170511Y-74519427D01*
X96204100Y-74307357D01*
X96204100Y-74092643D01*
X116081900Y-74092643D01*
X116081900Y-74307356D01*
X116115489Y-74519428D01*
X116181837Y-74723630D01*
X116181838Y-74723633D01*
X116265652Y-74888125D01*
X116279317Y-74914944D01*
X116405523Y-75088651D01*
X116557349Y-75240477D01*
X116731056Y-75366683D01*
X116757626Y-75380221D01*
X116922366Y-75464161D01*
X116922369Y-75464162D01*
X117024470Y-75497336D01*
X117126573Y-75530511D01*
X117338643Y-75564100D01*
X117338644Y-75564100D01*
X117553356Y-75564100D01*
X117553357Y-75564100D01*
X117765427Y-75530511D01*
X117969633Y-75464161D01*
X118160944Y-75366683D01*
X118334651Y-75240477D01*
X118486477Y-75088651D01*
X118612683Y-74914944D01*
X118612683Y-74914943D01*
X118615547Y-74911002D01*
X118617478Y-74912405D01*
X118661927Y-74872078D01*
X118730840Y-74860558D01*
X118795042Y-74888125D01*
X118815478Y-74911709D01*
X118816453Y-74911002D01*
X118819316Y-74914943D01*
X118819317Y-74914944D01*
X118945523Y-75088651D01*
X119097349Y-75240477D01*
X119271056Y-75366683D01*
X119297626Y-75380221D01*
X119462366Y-75464161D01*
X119462369Y-75464162D01*
X119564470Y-75497336D01*
X119666573Y-75530511D01*
X119878643Y-75564100D01*
X119878644Y-75564100D01*
X120093356Y-75564100D01*
X120093357Y-75564100D01*
X120305427Y-75530511D01*
X120509633Y-75464161D01*
X120700944Y-75366683D01*
X120874651Y-75240477D01*
X121026477Y-75088651D01*
X121152683Y-74914944D01*
X121152683Y-74914943D01*
X121155547Y-74911002D01*
X121157478Y-74912405D01*
X121201927Y-74872078D01*
X121270840Y-74860558D01*
X121335042Y-74888125D01*
X121355478Y-74911709D01*
X121356453Y-74911002D01*
X121359316Y-74914943D01*
X121359317Y-74914944D01*
X121485523Y-75088651D01*
X121637349Y-75240477D01*
X121811056Y-75366683D01*
X121837626Y-75380221D01*
X122002366Y-75464161D01*
X122002369Y-75464162D01*
X122104470Y-75497336D01*
X122206573Y-75530511D01*
X122418643Y-75564100D01*
X122418644Y-75564100D01*
X122633356Y-75564100D01*
X122633357Y-75564100D01*
X122845427Y-75530511D01*
X123049633Y-75464161D01*
X123240944Y-75366683D01*
X123414651Y-75240477D01*
X123566477Y-75088651D01*
X123678082Y-74935039D01*
X123733412Y-74892374D01*
X123803025Y-74886395D01*
X123864820Y-74919001D01*
X123899177Y-74979839D01*
X123902400Y-75007924D01*
X123902400Y-75108385D01*
X123902402Y-75108408D01*
X123905308Y-75133469D01*
X123905309Y-75133473D01*
X123950611Y-75236074D01*
X123950614Y-75236079D01*
X124029920Y-75315385D01*
X124029925Y-75315388D01*
X124132523Y-75360689D01*
X124157606Y-75363599D01*
X124715999Y-75363599D01*
X124716000Y-75363598D01*
X124716000Y-74568422D01*
X124754080Y-74606502D01*
X124869919Y-74673381D01*
X124999120Y-74708000D01*
X125132880Y-74708000D01*
X125262081Y-74673381D01*
X125377920Y-74606502D01*
X125416000Y-74568422D01*
X125416000Y-75363599D01*
X125974386Y-75363599D01*
X125974408Y-75363597D01*
X125999469Y-75360691D01*
X125999473Y-75360690D01*
X126102074Y-75315388D01*
X126102079Y-75315385D01*
X126181385Y-75236079D01*
X126181388Y-75236074D01*
X126226689Y-75133477D01*
X126226689Y-75133475D01*
X126229599Y-75108394D01*
X126229599Y-75007927D01*
X126249283Y-74940888D01*
X126302086Y-74895132D01*
X126371245Y-74885188D01*
X126434801Y-74914212D01*
X126453917Y-74935040D01*
X126486466Y-74979839D01*
X126565523Y-75088651D01*
X126717349Y-75240477D01*
X126891056Y-75366683D01*
X126917626Y-75380221D01*
X127082366Y-75464161D01*
X127082369Y-75464162D01*
X127184470Y-75497336D01*
X127286573Y-75530511D01*
X127498643Y-75564100D01*
X127498644Y-75564100D01*
X127713356Y-75564100D01*
X127713357Y-75564100D01*
X127925427Y-75530511D01*
X128129633Y-75464161D01*
X128320944Y-75366683D01*
X128494651Y-75240477D01*
X128646477Y-75088651D01*
X128772683Y-74914944D01*
X128772683Y-74914943D01*
X128775547Y-74911002D01*
X128777478Y-74912405D01*
X128821927Y-74872078D01*
X128890840Y-74860558D01*
X128955042Y-74888125D01*
X128975478Y-74911709D01*
X128976453Y-74911002D01*
X128979316Y-74914943D01*
X128979317Y-74914944D01*
X129105523Y-75088651D01*
X129257349Y-75240477D01*
X129431056Y-75366683D01*
X129457626Y-75380221D01*
X129622366Y-75464161D01*
X129622369Y-75464162D01*
X129724470Y-75497336D01*
X129826573Y-75530511D01*
X130038643Y-75564100D01*
X130038644Y-75564100D01*
X130253356Y-75564100D01*
X130253357Y-75564100D01*
X130465427Y-75530511D01*
X130669633Y-75464161D01*
X130860944Y-75366683D01*
X131034651Y-75240477D01*
X131186477Y-75088651D01*
X131312683Y-74914944D01*
X131312683Y-74914943D01*
X131315547Y-74911002D01*
X131317478Y-74912405D01*
X131361927Y-74872078D01*
X131430840Y-74860558D01*
X131495042Y-74888125D01*
X131515478Y-74911709D01*
X131516453Y-74911002D01*
X131519316Y-74914943D01*
X131519317Y-74914944D01*
X131645523Y-75088651D01*
X131797349Y-75240477D01*
X131971056Y-75366683D01*
X131997626Y-75380221D01*
X132162366Y-75464161D01*
X132162369Y-75464162D01*
X132264470Y-75497336D01*
X132366573Y-75530511D01*
X132578643Y-75564100D01*
X132578644Y-75564100D01*
X132793356Y-75564100D01*
X132793357Y-75564100D01*
X133005427Y-75530511D01*
X133209633Y-75464161D01*
X133400944Y-75366683D01*
X133574651Y-75240477D01*
X133726477Y-75088651D01*
X133852683Y-74914944D01*
X133852683Y-74914943D01*
X133855547Y-74911002D01*
X133857478Y-74912405D01*
X133901927Y-74872078D01*
X133970840Y-74860558D01*
X134035042Y-74888125D01*
X134055478Y-74911709D01*
X134056453Y-74911002D01*
X134059316Y-74914943D01*
X134059317Y-74914944D01*
X134185523Y-75088651D01*
X134337349Y-75240477D01*
X134511056Y-75366683D01*
X134537626Y-75380221D01*
X134702366Y-75464161D01*
X134702369Y-75464162D01*
X134804470Y-75497336D01*
X134906573Y-75530511D01*
X135118643Y-75564100D01*
X135118644Y-75564100D01*
X135333356Y-75564100D01*
X135333357Y-75564100D01*
X135545427Y-75530511D01*
X135749633Y-75464161D01*
X135940944Y-75366683D01*
X136114651Y-75240477D01*
X136266477Y-75088651D01*
X136392683Y-74914944D01*
X136392683Y-74914943D01*
X136395547Y-74911002D01*
X136397478Y-74912405D01*
X136441927Y-74872078D01*
X136510840Y-74860558D01*
X136575042Y-74888125D01*
X136595478Y-74911709D01*
X136596453Y-74911002D01*
X136599316Y-74914943D01*
X136599317Y-74914944D01*
X136725523Y-75088651D01*
X136877349Y-75240477D01*
X137051056Y-75366683D01*
X137077626Y-75380221D01*
X137242366Y-75464161D01*
X137242369Y-75464162D01*
X137344470Y-75497336D01*
X137446573Y-75530511D01*
X137658643Y-75564100D01*
X137658644Y-75564100D01*
X137873356Y-75564100D01*
X137873357Y-75564100D01*
X138085427Y-75530511D01*
X138289633Y-75464161D01*
X138480944Y-75366683D01*
X138654651Y-75240477D01*
X138806477Y-75088651D01*
X138932683Y-74914944D01*
X138932683Y-74914943D01*
X138935547Y-74911002D01*
X138937478Y-74912405D01*
X138981927Y-74872078D01*
X139050840Y-74860558D01*
X139115042Y-74888125D01*
X139135478Y-74911709D01*
X139136453Y-74911002D01*
X139139316Y-74914943D01*
X139139317Y-74914944D01*
X139265523Y-75088651D01*
X139417349Y-75240477D01*
X139591056Y-75366683D01*
X139617626Y-75380221D01*
X139782366Y-75464161D01*
X139782369Y-75464162D01*
X139884470Y-75497336D01*
X139986573Y-75530511D01*
X140198643Y-75564100D01*
X140198644Y-75564100D01*
X140413356Y-75564100D01*
X140413357Y-75564100D01*
X140625427Y-75530511D01*
X140829633Y-75464161D01*
X141020944Y-75366683D01*
X141194651Y-75240477D01*
X141346477Y-75088651D01*
X141472683Y-74914944D01*
X141570161Y-74723633D01*
X141636511Y-74519427D01*
X141670100Y-74307357D01*
X141670100Y-74092643D01*
X141636511Y-73880573D01*
X141576000Y-73694337D01*
X141570162Y-73676369D01*
X141570161Y-73676366D01*
X141486266Y-73511715D01*
X141472683Y-73485056D01*
X141346477Y-73311349D01*
X141194651Y-73159523D01*
X141020944Y-73033317D01*
X140829633Y-72935838D01*
X140829630Y-72935837D01*
X140625428Y-72869489D01*
X140519392Y-72852694D01*
X140413357Y-72835900D01*
X140198643Y-72835900D01*
X140127953Y-72847096D01*
X139986571Y-72869489D01*
X139782369Y-72935837D01*
X139782366Y-72935838D01*
X139591055Y-73033317D01*
X139558675Y-73056843D01*
X139417349Y-73159523D01*
X139417347Y-73159525D01*
X139417346Y-73159525D01*
X139265525Y-73311346D01*
X139265525Y-73311347D01*
X139265523Y-73311349D01*
X139153918Y-73464959D01*
X139136453Y-73488998D01*
X139134562Y-73487624D01*
X139089848Y-73528030D01*
X139020911Y-73539411D01*
X138956765Y-73511715D01*
X138936488Y-73488314D01*
X138935547Y-73488998D01*
X138918082Y-73464960D01*
X138806477Y-73311349D01*
X138654651Y-73159523D01*
X138480944Y-73033317D01*
X138289633Y-72935838D01*
X138289630Y-72935837D01*
X138085428Y-72869489D01*
X137979392Y-72852694D01*
X137873357Y-72835900D01*
X137658643Y-72835900D01*
X137587953Y-72847096D01*
X137446571Y-72869489D01*
X137242369Y-72935837D01*
X137242366Y-72935838D01*
X137051055Y-73033317D01*
X137018675Y-73056843D01*
X136877349Y-73159523D01*
X136877347Y-73159525D01*
X136877346Y-73159525D01*
X136725525Y-73311346D01*
X136725525Y-73311347D01*
X136725523Y-73311349D01*
X136613918Y-73464959D01*
X136596453Y-73488998D01*
X136594562Y-73487624D01*
X136549848Y-73528030D01*
X136480911Y-73539411D01*
X136416765Y-73511715D01*
X136396488Y-73488314D01*
X136395547Y-73488998D01*
X136378082Y-73464960D01*
X136266477Y-73311349D01*
X136114651Y-73159523D01*
X135940944Y-73033317D01*
X135749633Y-72935838D01*
X135749630Y-72935837D01*
X135545428Y-72869489D01*
X135439392Y-72852694D01*
X135333357Y-72835900D01*
X135118643Y-72835900D01*
X135047953Y-72847096D01*
X134906571Y-72869489D01*
X134702369Y-72935837D01*
X134702366Y-72935838D01*
X134511055Y-73033317D01*
X134478675Y-73056843D01*
X134337349Y-73159523D01*
X134337347Y-73159525D01*
X134337346Y-73159525D01*
X134185525Y-73311346D01*
X134185525Y-73311347D01*
X134185523Y-73311349D01*
X134073918Y-73464959D01*
X134056453Y-73488998D01*
X134054562Y-73487624D01*
X134009848Y-73528030D01*
X133940911Y-73539411D01*
X133876765Y-73511715D01*
X133856488Y-73488314D01*
X133855547Y-73488998D01*
X133838082Y-73464960D01*
X133726477Y-73311349D01*
X133574651Y-73159523D01*
X133400944Y-73033317D01*
X133209633Y-72935838D01*
X133209630Y-72935837D01*
X133005428Y-72869489D01*
X132899392Y-72852694D01*
X132793357Y-72835900D01*
X132578643Y-72835900D01*
X132507953Y-72847096D01*
X132366571Y-72869489D01*
X132162369Y-72935837D01*
X132162366Y-72935838D01*
X131971055Y-73033317D01*
X131938675Y-73056843D01*
X131797349Y-73159523D01*
X131797347Y-73159525D01*
X131797346Y-73159525D01*
X131645525Y-73311346D01*
X131645525Y-73311347D01*
X131645523Y-73311349D01*
X131533918Y-73464959D01*
X131516453Y-73488998D01*
X131514562Y-73487624D01*
X131469848Y-73528030D01*
X131400911Y-73539411D01*
X131336765Y-73511715D01*
X131316488Y-73488314D01*
X131315547Y-73488998D01*
X131298082Y-73464960D01*
X131186477Y-73311349D01*
X131034651Y-73159523D01*
X130860944Y-73033317D01*
X130669633Y-72935838D01*
X130669630Y-72935837D01*
X130465428Y-72869489D01*
X130359392Y-72852694D01*
X130253357Y-72835900D01*
X130038643Y-72835900D01*
X129967953Y-72847096D01*
X129826571Y-72869489D01*
X129622369Y-72935837D01*
X129622366Y-72935838D01*
X129431055Y-73033317D01*
X129398675Y-73056843D01*
X129257349Y-73159523D01*
X129257347Y-73159525D01*
X129257346Y-73159525D01*
X129105525Y-73311346D01*
X129105525Y-73311347D01*
X129105523Y-73311349D01*
X128993918Y-73464959D01*
X128976453Y-73488998D01*
X128974562Y-73487624D01*
X128929848Y-73528030D01*
X128860911Y-73539411D01*
X128796765Y-73511715D01*
X128776488Y-73488314D01*
X128775547Y-73488998D01*
X128758082Y-73464960D01*
X128646477Y-73311349D01*
X128494651Y-73159523D01*
X128320944Y-73033317D01*
X128129633Y-72935838D01*
X128129630Y-72935837D01*
X127925428Y-72869489D01*
X127819392Y-72852694D01*
X127713357Y-72835900D01*
X127498643Y-72835900D01*
X127427953Y-72847096D01*
X127286571Y-72869489D01*
X127082369Y-72935837D01*
X127082366Y-72935838D01*
X126891055Y-73033317D01*
X126858675Y-73056843D01*
X126717349Y-73159523D01*
X126717347Y-73159525D01*
X126717346Y-73159525D01*
X126565524Y-73311347D01*
X126453917Y-73464960D01*
X126398586Y-73507625D01*
X126328973Y-73513604D01*
X126267178Y-73480998D01*
X126232821Y-73420159D01*
X126229599Y-73392074D01*
X126229599Y-73291614D01*
X126229597Y-73291591D01*
X126226691Y-73266530D01*
X126226690Y-73266526D01*
X126181388Y-73163925D01*
X126181385Y-73163920D01*
X126102079Y-73084614D01*
X126102074Y-73084611D01*
X125999476Y-73039310D01*
X125974394Y-73036400D01*
X125416000Y-73036400D01*
X125416000Y-73831578D01*
X125377920Y-73793498D01*
X125262081Y-73726619D01*
X125132880Y-73692000D01*
X124999120Y-73692000D01*
X124869919Y-73726619D01*
X124754080Y-73793498D01*
X124716000Y-73831578D01*
X124716000Y-73036400D01*
X124157614Y-73036400D01*
X124157591Y-73036402D01*
X124132530Y-73039308D01*
X124132526Y-73039309D01*
X124029925Y-73084611D01*
X124029920Y-73084614D01*
X123950614Y-73163920D01*
X123950611Y-73163925D01*
X123905310Y-73266522D01*
X123905310Y-73266524D01*
X123902400Y-73291605D01*
X123902400Y-73392073D01*
X123882715Y-73459112D01*
X123829911Y-73504867D01*
X123760753Y-73514811D01*
X123697197Y-73485786D01*
X123678082Y-73464959D01*
X123625127Y-73392073D01*
X123566477Y-73311349D01*
X123414651Y-73159523D01*
X123240944Y-73033317D01*
X123049633Y-72935838D01*
X123049630Y-72935837D01*
X122845428Y-72869489D01*
X122739392Y-72852694D01*
X122633357Y-72835900D01*
X122418643Y-72835900D01*
X122347953Y-72847096D01*
X122206571Y-72869489D01*
X122002369Y-72935837D01*
X122002366Y-72935838D01*
X121811055Y-73033317D01*
X121778675Y-73056843D01*
X121637349Y-73159523D01*
X121637347Y-73159525D01*
X121637346Y-73159525D01*
X121485525Y-73311346D01*
X121485525Y-73311347D01*
X121485523Y-73311349D01*
X121373918Y-73464959D01*
X121356453Y-73488998D01*
X121354562Y-73487624D01*
X121309848Y-73528030D01*
X121240911Y-73539411D01*
X121176765Y-73511715D01*
X121156488Y-73488314D01*
X121155547Y-73488998D01*
X121138082Y-73464960D01*
X121026477Y-73311349D01*
X120874651Y-73159523D01*
X120700944Y-73033317D01*
X120509633Y-72935838D01*
X120509630Y-72935837D01*
X120305428Y-72869489D01*
X120199392Y-72852694D01*
X120093357Y-72835900D01*
X119878643Y-72835900D01*
X119807953Y-72847096D01*
X119666571Y-72869489D01*
X119462369Y-72935837D01*
X119462366Y-72935838D01*
X119271055Y-73033317D01*
X119238675Y-73056843D01*
X119097349Y-73159523D01*
X119097347Y-73159525D01*
X119097346Y-73159525D01*
X118945525Y-73311346D01*
X118945525Y-73311347D01*
X118945523Y-73311349D01*
X118833918Y-73464959D01*
X118816453Y-73488998D01*
X118814562Y-73487624D01*
X118769848Y-73528030D01*
X118700911Y-73539411D01*
X118636765Y-73511715D01*
X118616488Y-73488314D01*
X118615547Y-73488998D01*
X118598082Y-73464960D01*
X118486477Y-73311349D01*
X118334651Y-73159523D01*
X118160944Y-73033317D01*
X117969633Y-72935838D01*
X117969630Y-72935837D01*
X117765428Y-72869489D01*
X117659392Y-72852694D01*
X117553357Y-72835900D01*
X117338643Y-72835900D01*
X117267953Y-72847096D01*
X117126571Y-72869489D01*
X116922369Y-72935837D01*
X116922366Y-72935838D01*
X116731055Y-73033317D01*
X116698675Y-73056843D01*
X116557349Y-73159523D01*
X116557347Y-73159525D01*
X116557346Y-73159525D01*
X116405525Y-73311346D01*
X116405525Y-73311347D01*
X116405523Y-73311349D01*
X116351322Y-73385949D01*
X116279317Y-73485055D01*
X116181838Y-73676366D01*
X116181837Y-73676369D01*
X116115489Y-73880571D01*
X116081900Y-74092643D01*
X96204100Y-74092643D01*
X96170511Y-73880573D01*
X96110000Y-73694337D01*
X96104162Y-73676369D01*
X96104161Y-73676366D01*
X96020266Y-73511715D01*
X96006683Y-73485056D01*
X95880477Y-73311349D01*
X95728651Y-73159523D01*
X95554944Y-73033317D01*
X95363633Y-72935838D01*
X95363630Y-72935837D01*
X95159428Y-72869489D01*
X95053392Y-72852694D01*
X94947357Y-72835900D01*
X94732643Y-72835900D01*
X94661953Y-72847096D01*
X94520571Y-72869489D01*
X94316369Y-72935837D01*
X94316366Y-72935838D01*
X94125055Y-73033317D01*
X94092675Y-73056843D01*
X93951349Y-73159523D01*
X93951347Y-73159525D01*
X93951346Y-73159525D01*
X93799525Y-73311346D01*
X93799525Y-73311347D01*
X93799523Y-73311349D01*
X93687918Y-73464959D01*
X93670453Y-73488998D01*
X93668562Y-73487624D01*
X93623848Y-73528030D01*
X93554911Y-73539411D01*
X93490765Y-73511715D01*
X93470488Y-73488314D01*
X93469547Y-73488998D01*
X93452082Y-73464960D01*
X93340477Y-73311349D01*
X93188651Y-73159523D01*
X93014944Y-73033317D01*
X92823633Y-72935838D01*
X92823630Y-72935837D01*
X92619428Y-72869489D01*
X92513392Y-72852694D01*
X92407357Y-72835900D01*
X92192643Y-72835900D01*
X92121953Y-72847096D01*
X91980571Y-72869489D01*
X91776369Y-72935837D01*
X91776366Y-72935838D01*
X91585055Y-73033317D01*
X91552675Y-73056843D01*
X91411349Y-73159523D01*
X91411347Y-73159525D01*
X91411346Y-73159525D01*
X91259525Y-73311346D01*
X91259525Y-73311347D01*
X91259523Y-73311349D01*
X91147918Y-73464959D01*
X91130453Y-73488998D01*
X91128562Y-73487624D01*
X91083848Y-73528030D01*
X91014911Y-73539411D01*
X90950765Y-73511715D01*
X90930488Y-73488314D01*
X90929547Y-73488998D01*
X90912082Y-73464960D01*
X90800477Y-73311349D01*
X90648651Y-73159523D01*
X90474944Y-73033317D01*
X90283633Y-72935838D01*
X90283630Y-72935837D01*
X90079428Y-72869489D01*
X89973392Y-72852694D01*
X89867357Y-72835900D01*
X89652643Y-72835900D01*
X89581953Y-72847096D01*
X89440571Y-72869489D01*
X89236369Y-72935837D01*
X89236366Y-72935838D01*
X89045055Y-73033317D01*
X89012675Y-73056843D01*
X88871349Y-73159523D01*
X88871347Y-73159525D01*
X88871346Y-73159525D01*
X88719525Y-73311346D01*
X88719525Y-73311347D01*
X88719523Y-73311349D01*
X88607918Y-73464959D01*
X88590453Y-73488998D01*
X88588562Y-73487624D01*
X88543848Y-73528030D01*
X88474911Y-73539411D01*
X88410765Y-73511715D01*
X88390488Y-73488314D01*
X88389547Y-73488998D01*
X88372082Y-73464960D01*
X88260477Y-73311349D01*
X88108651Y-73159523D01*
X87934944Y-73033317D01*
X87743633Y-72935838D01*
X87743630Y-72935837D01*
X87539428Y-72869489D01*
X87433392Y-72852694D01*
X87327357Y-72835900D01*
X87112643Y-72835900D01*
X87041953Y-72847096D01*
X86900571Y-72869489D01*
X86696369Y-72935837D01*
X86696366Y-72935838D01*
X86505055Y-73033317D01*
X86472675Y-73056843D01*
X86331349Y-73159523D01*
X86331347Y-73159525D01*
X86331346Y-73159525D01*
X86179525Y-73311346D01*
X86179525Y-73311347D01*
X86179523Y-73311349D01*
X86067918Y-73464959D01*
X86050453Y-73488998D01*
X86048562Y-73487624D01*
X86003848Y-73528030D01*
X85934911Y-73539411D01*
X85870765Y-73511715D01*
X85850488Y-73488314D01*
X85849547Y-73488998D01*
X85832082Y-73464960D01*
X85720477Y-73311349D01*
X85568651Y-73159523D01*
X85394944Y-73033317D01*
X85203633Y-72935838D01*
X85203630Y-72935837D01*
X84999428Y-72869489D01*
X84893392Y-72852694D01*
X84787357Y-72835900D01*
X84572643Y-72835900D01*
X84501953Y-72847096D01*
X84360571Y-72869489D01*
X84156369Y-72935837D01*
X84156366Y-72935838D01*
X83965055Y-73033317D01*
X83932675Y-73056843D01*
X83791349Y-73159523D01*
X83791347Y-73159525D01*
X83791346Y-73159525D01*
X83639525Y-73311346D01*
X83639525Y-73311347D01*
X83639523Y-73311349D01*
X83585322Y-73385949D01*
X83513317Y-73485055D01*
X83415838Y-73676366D01*
X83415837Y-73676369D01*
X83349489Y-73880571D01*
X83315900Y-74092643D01*
X74703725Y-74092643D01*
X74811319Y-73923755D01*
X74817515Y-73914905D01*
X75049896Y-73612060D01*
X75056834Y-73603791D01*
X75314726Y-73322352D01*
X75322352Y-73314726D01*
X75603791Y-73056834D01*
X75612060Y-73049896D01*
X75914905Y-72817515D01*
X75923744Y-72811325D01*
X76245700Y-72606217D01*
X76255045Y-72600822D01*
X76593638Y-72424561D01*
X76603412Y-72420003D01*
X76956095Y-72273917D01*
X76966227Y-72270230D01*
X77330295Y-72155440D01*
X77340709Y-72152649D01*
X77713405Y-72070025D01*
X77724025Y-72068152D01*
X78102495Y-72018326D01*
X78113226Y-72017386D01*
X78497297Y-72000617D01*
X78502706Y-72000500D01*
X78565892Y-72000500D01*
X168434108Y-72000500D01*
X168497294Y-72000500D01*
X168502702Y-72000617D01*
G37*
%TD.AperFunction*%
%TD*%
M02*
